<mxfile host="65bd71144e">
    <diagram id="5P-iTtk6EJzGvg0LwzqV" name="Page-1">
        <mxGraphModel dx="599" dy="457" grid="1" gridSize="10" guides="1" tooltips="1" connect="1" arrows="1" fold="1" page="1" pageScale="1" pageWidth="850" pageHeight="1100" math="0" shadow="0">
            <root>
                <mxCell id="0"/>
                <mxCell id="1" parent="0"/>
                <mxCell id="xn0J_1aLD7OM7Lsq-6MU-27" value="" style="shape=table;html=1;whiteSpace=wrap;startSize=0;container=1;collapsible=0;childLayout=tableLayout;" parent="1" vertex="1">
                    <mxGeometry x="90" y="150" width="1020" height="280" as="geometry"/>
                </mxCell>
                <mxCell id="xn0J_1aLD7OM7Lsq-6MU-28" value="" style="shape=tableRow;horizontal=0;startSize=0;swimlaneHead=0;swimlaneBody=0;top=0;left=0;bottom=0;right=0;collapsible=0;dropTarget=0;fillColor=none;points=[[0,0.5],[1,0.5]];portConstraint=eastwest;" parent="xn0J_1aLD7OM7Lsq-6MU-27" vertex="1">
                    <mxGeometry width="1020" height="40" as="geometry"/>
                </mxCell>
                <mxCell id="xn0J_1aLD7OM7Lsq-6MU-29" value="partner_firstName&lt;br&gt;" style="shape=partialRectangle;html=1;whiteSpace=wrap;connectable=0;fillColor=#dae8fc;top=0;left=0;bottom=0;right=0;overflow=hidden;strokeColor=#6c8ebf;" parent="xn0J_1aLD7OM7Lsq-6MU-28" vertex="1">
                    <mxGeometry width="110" height="40" as="geometry">
                        <mxRectangle width="110" height="40" as="alternateBounds"/>
                    </mxGeometry>
                </mxCell>
                <mxCell id="xn0J_1aLD7OM7Lsq-6MU-30" value="partner_lastName" style="shape=partialRectangle;html=1;whiteSpace=wrap;connectable=0;fillColor=#dae8fc;top=0;left=0;bottom=0;right=0;overflow=hidden;strokeColor=#6c8ebf;" parent="xn0J_1aLD7OM7Lsq-6MU-28" vertex="1">
                    <mxGeometry x="110" width="120" height="40" as="geometry">
                        <mxRectangle width="120" height="40" as="alternateBounds"/>
                    </mxGeometry>
                </mxCell>
                <mxCell id="xn0J_1aLD7OM7Lsq-6MU-31" value="backyardCity" style="shape=partialRectangle;html=1;whiteSpace=wrap;connectable=0;fillColor=#dae8fc;top=0;left=0;bottom=0;right=0;overflow=hidden;strokeColor=#6c8ebf;" parent="xn0J_1aLD7OM7Lsq-6MU-28" vertex="1">
                    <mxGeometry x="230" width="100" height="40" as="geometry">
                        <mxRectangle width="100" height="40" as="alternateBounds"/>
                    </mxGeometry>
                </mxCell>
                <mxCell id="xn0J_1aLD7OM7Lsq-6MU-40" value="backyardDescription&lt;br&gt;" style="shape=partialRectangle;html=1;whiteSpace=wrap;connectable=0;fillColor=#dae8fc;top=0;left=0;bottom=0;right=0;overflow=hidden;strokeColor=#6c8ebf;" parent="xn0J_1aLD7OM7Lsq-6MU-28" vertex="1">
                    <mxGeometry x="330" width="140" height="40" as="geometry">
                        <mxRectangle width="140" height="40" as="alternateBounds"/>
                    </mxGeometry>
                </mxCell>
                <mxCell id="xn0J_1aLD7OM7Lsq-6MU-43" value="customer_firstName" style="shape=partialRectangle;html=1;whiteSpace=wrap;connectable=0;fillColor=#dae8fc;top=0;left=0;bottom=0;right=0;overflow=hidden;strokeColor=#6c8ebf;" parent="xn0J_1aLD7OM7Lsq-6MU-28" vertex="1">
                    <mxGeometry x="470" width="130" height="40" as="geometry">
                        <mxRectangle width="130" height="40" as="alternateBounds"/>
                    </mxGeometry>
                </mxCell>
                <mxCell id="xn0J_1aLD7OM7Lsq-6MU-55" value="customer_lastName" style="shape=partialRectangle;html=1;whiteSpace=wrap;connectable=0;fillColor=#dae8fc;top=0;left=0;bottom=0;right=0;overflow=hidden;strokeColor=#6c8ebf;" parent="xn0J_1aLD7OM7Lsq-6MU-28" vertex="1">
                    <mxGeometry x="600" width="130" height="40" as="geometry">
                        <mxRectangle width="130" height="40" as="alternateBounds"/>
                    </mxGeometry>
                </mxCell>
                <mxCell id="xn0J_1aLD7OM7Lsq-6MU-58" value="eventName" style="shape=partialRectangle;html=1;whiteSpace=wrap;connectable=0;fillColor=#dae8fc;top=0;left=0;bottom=0;right=0;overflow=hidden;strokeColor=#6c8ebf;" parent="xn0J_1aLD7OM7Lsq-6MU-28" vertex="1">
                    <mxGeometry x="730" width="90" height="40" as="geometry">
                        <mxRectangle width="90" height="40" as="alternateBounds"/>
                    </mxGeometry>
                </mxCell>
                <mxCell id="xn0J_1aLD7OM7Lsq-6MU-61" value="eventDate" style="shape=partialRectangle;html=1;whiteSpace=wrap;connectable=0;fillColor=#dae8fc;top=0;left=0;bottom=0;right=0;overflow=hidden;strokeColor=#6c8ebf;" parent="xn0J_1aLD7OM7Lsq-6MU-28" vertex="1">
                    <mxGeometry x="820" width="100" height="40" as="geometry">
                        <mxRectangle width="100" height="40" as="alternateBounds"/>
                    </mxGeometry>
                </mxCell>
                <mxCell id="xn0J_1aLD7OM7Lsq-6MU-64" value="backyardCost" style="shape=partialRectangle;html=1;whiteSpace=wrap;connectable=0;fillColor=#dae8fc;top=0;left=0;bottom=0;right=0;overflow=hidden;strokeColor=#6c8ebf;" parent="xn0J_1aLD7OM7Lsq-6MU-28" vertex="1">
                    <mxGeometry x="920" width="100" height="40" as="geometry">
                        <mxRectangle width="100" height="40" as="alternateBounds"/>
                    </mxGeometry>
                </mxCell>
                <mxCell id="xn0J_1aLD7OM7Lsq-6MU-32" value="" style="shape=tableRow;horizontal=0;startSize=0;swimlaneHead=0;swimlaneBody=0;top=0;left=0;bottom=0;right=0;collapsible=0;dropTarget=0;fillColor=none;points=[[0,0.5],[1,0.5]];portConstraint=eastwest;" parent="xn0J_1aLD7OM7Lsq-6MU-27" vertex="1">
                    <mxGeometry y="40" width="1020" height="40" as="geometry"/>
                </mxCell>
                <mxCell id="xn0J_1aLD7OM7Lsq-6MU-33" value="Julia&lt;br&gt;" style="shape=partialRectangle;html=1;whiteSpace=wrap;connectable=0;fillColor=none;top=0;left=0;bottom=0;right=0;overflow=hidden;" parent="xn0J_1aLD7OM7Lsq-6MU-32" vertex="1">
                    <mxGeometry width="110" height="40" as="geometry">
                        <mxRectangle width="110" height="40" as="alternateBounds"/>
                    </mxGeometry>
                </mxCell>
                <mxCell id="xn0J_1aLD7OM7Lsq-6MU-34" value="Bubbles" style="shape=partialRectangle;html=1;whiteSpace=wrap;connectable=0;fillColor=none;top=0;left=0;bottom=0;right=0;overflow=hidden;" parent="xn0J_1aLD7OM7Lsq-6MU-32" vertex="1">
                    <mxGeometry x="110" width="120" height="40" as="geometry">
                        <mxRectangle width="120" height="40" as="alternateBounds"/>
                    </mxGeometry>
                </mxCell>
                <mxCell id="xn0J_1aLD7OM7Lsq-6MU-35" value="Toronto" style="shape=partialRectangle;html=1;whiteSpace=wrap;connectable=0;fillColor=none;top=0;left=0;bottom=0;right=0;overflow=hidden;" parent="xn0J_1aLD7OM7Lsq-6MU-32" vertex="1">
                    <mxGeometry x="230" width="100" height="40" as="geometry">
                        <mxRectangle width="100" height="40" as="alternateBounds"/>
                    </mxGeometry>
                </mxCell>
                <mxCell id="xn0J_1aLD7OM7Lsq-6MU-41" value="beautiful hillside" style="shape=partialRectangle;html=1;whiteSpace=wrap;connectable=0;fillColor=none;top=0;left=0;bottom=0;right=0;overflow=hidden;" parent="xn0J_1aLD7OM7Lsq-6MU-32" vertex="1">
                    <mxGeometry x="330" width="140" height="40" as="geometry">
                        <mxRectangle width="140" height="40" as="alternateBounds"/>
                    </mxGeometry>
                </mxCell>
                <mxCell id="xn0J_1aLD7OM7Lsq-6MU-44" value="Kyla" style="shape=partialRectangle;html=1;whiteSpace=wrap;connectable=0;fillColor=none;top=0;left=0;bottom=0;right=0;overflow=hidden;" parent="xn0J_1aLD7OM7Lsq-6MU-32" vertex="1">
                    <mxGeometry x="470" width="130" height="40" as="geometry">
                        <mxRectangle width="130" height="40" as="alternateBounds"/>
                    </mxGeometry>
                </mxCell>
                <mxCell id="xn0J_1aLD7OM7Lsq-6MU-56" value="Friso" style="shape=partialRectangle;html=1;whiteSpace=wrap;connectable=0;fillColor=none;top=0;left=0;bottom=0;right=0;overflow=hidden;" parent="xn0J_1aLD7OM7Lsq-6MU-32" vertex="1">
                    <mxGeometry x="600" width="130" height="40" as="geometry">
                        <mxRectangle width="130" height="40" as="alternateBounds"/>
                    </mxGeometry>
                </mxCell>
                <mxCell id="xn0J_1aLD7OM7Lsq-6MU-59" value="getting married" style="shape=partialRectangle;html=1;whiteSpace=wrap;connectable=0;fillColor=none;top=0;left=0;bottom=0;right=0;overflow=hidden;" parent="xn0J_1aLD7OM7Lsq-6MU-32" vertex="1">
                    <mxGeometry x="730" width="90" height="40" as="geometry">
                        <mxRectangle width="90" height="40" as="alternateBounds"/>
                    </mxGeometry>
                </mxCell>
                <mxCell id="xn0J_1aLD7OM7Lsq-6MU-62" value="2022-08-23" style="shape=partialRectangle;html=1;whiteSpace=wrap;connectable=0;fillColor=none;top=0;left=0;bottom=0;right=0;overflow=hidden;" parent="xn0J_1aLD7OM7Lsq-6MU-32" vertex="1">
                    <mxGeometry x="820" width="100" height="40" as="geometry">
                        <mxRectangle width="100" height="40" as="alternateBounds"/>
                    </mxGeometry>
                </mxCell>
                <mxCell id="xn0J_1aLD7OM7Lsq-6MU-65" value="2300" style="shape=partialRectangle;html=1;whiteSpace=wrap;connectable=0;fillColor=none;top=0;left=0;bottom=0;right=0;overflow=hidden;" parent="xn0J_1aLD7OM7Lsq-6MU-32" vertex="1">
                    <mxGeometry x="920" width="100" height="40" as="geometry">
                        <mxRectangle width="100" height="40" as="alternateBounds"/>
                    </mxGeometry>
                </mxCell>
                <mxCell id="xn0J_1aLD7OM7Lsq-6MU-36" value="" style="shape=tableRow;horizontal=0;startSize=0;swimlaneHead=0;swimlaneBody=0;top=0;left=0;bottom=0;right=0;collapsible=0;dropTarget=0;fillColor=none;points=[[0,0.5],[1,0.5]];portConstraint=eastwest;" parent="xn0J_1aLD7OM7Lsq-6MU-27" vertex="1">
                    <mxGeometry y="80" width="1020" height="40" as="geometry"/>
                </mxCell>
                <mxCell id="xn0J_1aLD7OM7Lsq-6MU-37" value="Julia" style="shape=partialRectangle;html=1;whiteSpace=wrap;connectable=0;fillColor=none;top=0;left=0;bottom=0;right=0;overflow=hidden;" parent="xn0J_1aLD7OM7Lsq-6MU-36" vertex="1">
                    <mxGeometry width="110" height="40" as="geometry">
                        <mxRectangle width="110" height="40" as="alternateBounds"/>
                    </mxGeometry>
                </mxCell>
                <mxCell id="xn0J_1aLD7OM7Lsq-6MU-38" value="Bubbles" style="shape=partialRectangle;html=1;whiteSpace=wrap;connectable=0;fillColor=none;top=0;left=0;bottom=0;right=0;overflow=hidden;" parent="xn0J_1aLD7OM7Lsq-6MU-36" vertex="1">
                    <mxGeometry x="110" width="120" height="40" as="geometry">
                        <mxRectangle width="120" height="40" as="alternateBounds"/>
                    </mxGeometry>
                </mxCell>
                <mxCell id="xn0J_1aLD7OM7Lsq-6MU-39" value="Toronto" style="shape=partialRectangle;html=1;whiteSpace=wrap;connectable=0;fillColor=none;top=0;left=0;bottom=0;right=0;overflow=hidden;pointerEvents=1;" parent="xn0J_1aLD7OM7Lsq-6MU-36" vertex="1">
                    <mxGeometry x="230" width="100" height="40" as="geometry">
                        <mxRectangle width="100" height="40" as="alternateBounds"/>
                    </mxGeometry>
                </mxCell>
                <mxCell id="xn0J_1aLD7OM7Lsq-6MU-42" value="beautiful hillside" style="shape=partialRectangle;html=1;whiteSpace=wrap;connectable=0;fillColor=none;top=0;left=0;bottom=0;right=0;overflow=hidden;pointerEvents=1;" parent="xn0J_1aLD7OM7Lsq-6MU-36" vertex="1">
                    <mxGeometry x="330" width="140" height="40" as="geometry">
                        <mxRectangle width="140" height="40" as="alternateBounds"/>
                    </mxGeometry>
                </mxCell>
                <mxCell id="xn0J_1aLD7OM7Lsq-6MU-45" value="Kyla" style="shape=partialRectangle;html=1;whiteSpace=wrap;connectable=0;fillColor=none;top=0;left=0;bottom=0;right=0;overflow=hidden;pointerEvents=1;" parent="xn0J_1aLD7OM7Lsq-6MU-36" vertex="1">
                    <mxGeometry x="470" width="130" height="40" as="geometry">
                        <mxRectangle width="130" height="40" as="alternateBounds"/>
                    </mxGeometry>
                </mxCell>
                <mxCell id="xn0J_1aLD7OM7Lsq-6MU-57" value="Friso" style="shape=partialRectangle;html=1;whiteSpace=wrap;connectable=0;fillColor=none;top=0;left=0;bottom=0;right=0;overflow=hidden;pointerEvents=1;" parent="xn0J_1aLD7OM7Lsq-6MU-36" vertex="1">
                    <mxGeometry x="600" width="130" height="40" as="geometry">
                        <mxRectangle width="130" height="40" as="alternateBounds"/>
                    </mxGeometry>
                </mxCell>
                <mxCell id="xn0J_1aLD7OM7Lsq-6MU-60" value="wedding&amp;nbsp;&lt;br&gt;aniversary" style="shape=partialRectangle;html=1;whiteSpace=wrap;connectable=0;fillColor=none;top=0;left=0;bottom=0;right=0;overflow=hidden;pointerEvents=1;" parent="xn0J_1aLD7OM7Lsq-6MU-36" vertex="1">
                    <mxGeometry x="730" width="90" height="40" as="geometry">
                        <mxRectangle width="90" height="40" as="alternateBounds"/>
                    </mxGeometry>
                </mxCell>
                <mxCell id="xn0J_1aLD7OM7Lsq-6MU-63" value="2023-08-23" style="shape=partialRectangle;html=1;whiteSpace=wrap;connectable=0;fillColor=none;top=0;left=0;bottom=0;right=0;overflow=hidden;pointerEvents=1;" parent="xn0J_1aLD7OM7Lsq-6MU-36" vertex="1">
                    <mxGeometry x="820" width="100" height="40" as="geometry">
                        <mxRectangle width="100" height="40" as="alternateBounds"/>
                    </mxGeometry>
                </mxCell>
                <mxCell id="xn0J_1aLD7OM7Lsq-6MU-66" value="2300" style="shape=partialRectangle;html=1;whiteSpace=wrap;connectable=0;fillColor=none;top=0;left=0;bottom=0;right=0;overflow=hidden;pointerEvents=1;" parent="xn0J_1aLD7OM7Lsq-6MU-36" vertex="1">
                    <mxGeometry x="920" width="100" height="40" as="geometry">
                        <mxRectangle width="100" height="40" as="alternateBounds"/>
                    </mxGeometry>
                </mxCell>
                <mxCell id="xn0J_1aLD7OM7Lsq-6MU-97" style="shape=tableRow;horizontal=0;startSize=0;swimlaneHead=0;swimlaneBody=0;top=0;left=0;bottom=0;right=0;collapsible=0;dropTarget=0;fillColor=none;points=[[0,0.5],[1,0.5]];portConstraint=eastwest;" parent="xn0J_1aLD7OM7Lsq-6MU-27" vertex="1">
                    <mxGeometry y="120" width="1020" height="40" as="geometry"/>
                </mxCell>
                <mxCell id="xn0J_1aLD7OM7Lsq-6MU-98" value="Ann" style="shape=partialRectangle;html=1;whiteSpace=wrap;connectable=0;fillColor=none;top=0;left=0;bottom=0;right=0;overflow=hidden;" parent="xn0J_1aLD7OM7Lsq-6MU-97" vertex="1">
                    <mxGeometry width="110" height="40" as="geometry">
                        <mxRectangle width="110" height="40" as="alternateBounds"/>
                    </mxGeometry>
                </mxCell>
                <mxCell id="xn0J_1aLD7OM7Lsq-6MU-99" value="Tseng" style="shape=partialRectangle;html=1;whiteSpace=wrap;connectable=0;fillColor=none;top=0;left=0;bottom=0;right=0;overflow=hidden;" parent="xn0J_1aLD7OM7Lsq-6MU-97" vertex="1">
                    <mxGeometry x="110" width="120" height="40" as="geometry">
                        <mxRectangle width="120" height="40" as="alternateBounds"/>
                    </mxGeometry>
                </mxCell>
                <mxCell id="xn0J_1aLD7OM7Lsq-6MU-100" value="Kelowna" style="shape=partialRectangle;html=1;whiteSpace=wrap;connectable=0;fillColor=none;top=0;left=0;bottom=0;right=0;overflow=hidden;pointerEvents=1;" parent="xn0J_1aLD7OM7Lsq-6MU-97" vertex="1">
                    <mxGeometry x="230" width="100" height="40" as="geometry">
                        <mxRectangle width="100" height="40" as="alternateBounds"/>
                    </mxGeometry>
                </mxCell>
                <mxCell id="xn0J_1aLD7OM7Lsq-6MU-101" value="cabin next to the lake" style="shape=partialRectangle;html=1;whiteSpace=wrap;connectable=0;fillColor=none;top=0;left=0;bottom=0;right=0;overflow=hidden;pointerEvents=1;" parent="xn0J_1aLD7OM7Lsq-6MU-97" vertex="1">
                    <mxGeometry x="330" width="140" height="40" as="geometry">
                        <mxRectangle width="140" height="40" as="alternateBounds"/>
                    </mxGeometry>
                </mxCell>
                <mxCell id="xn0J_1aLD7OM7Lsq-6MU-102" value="Hadi" style="shape=partialRectangle;html=1;whiteSpace=wrap;connectable=0;fillColor=none;top=0;left=0;bottom=0;right=0;overflow=hidden;pointerEvents=1;" parent="xn0J_1aLD7OM7Lsq-6MU-97" vertex="1">
                    <mxGeometry x="470" width="130" height="40" as="geometry">
                        <mxRectangle width="130" height="40" as="alternateBounds"/>
                    </mxGeometry>
                </mxCell>
                <mxCell id="xn0J_1aLD7OM7Lsq-6MU-103" value="Robertson" style="shape=partialRectangle;html=1;whiteSpace=wrap;connectable=0;fillColor=none;top=0;left=0;bottom=0;right=0;overflow=hidden;pointerEvents=1;" parent="xn0J_1aLD7OM7Lsq-6MU-97" vertex="1">
                    <mxGeometry x="600" width="130" height="40" as="geometry">
                        <mxRectangle width="130" height="40" as="alternateBounds"/>
                    </mxGeometry>
                </mxCell>
                <mxCell id="xn0J_1aLD7OM7Lsq-6MU-104" value="getting married" style="shape=partialRectangle;html=1;whiteSpace=wrap;connectable=0;fillColor=none;top=0;left=0;bottom=0;right=0;overflow=hidden;pointerEvents=1;" parent="xn0J_1aLD7OM7Lsq-6MU-97" vertex="1">
                    <mxGeometry x="730" width="90" height="40" as="geometry">
                        <mxRectangle width="90" height="40" as="alternateBounds"/>
                    </mxGeometry>
                </mxCell>
                <mxCell id="xn0J_1aLD7OM7Lsq-6MU-105" value="2022-01-14" style="shape=partialRectangle;html=1;whiteSpace=wrap;connectable=0;fillColor=none;top=0;left=0;bottom=0;right=0;overflow=hidden;pointerEvents=1;" parent="xn0J_1aLD7OM7Lsq-6MU-97" vertex="1">
                    <mxGeometry x="820" width="100" height="40" as="geometry">
                        <mxRectangle width="100" height="40" as="alternateBounds"/>
                    </mxGeometry>
                </mxCell>
                <mxCell id="xn0J_1aLD7OM7Lsq-6MU-106" value="1700" style="shape=partialRectangle;html=1;whiteSpace=wrap;connectable=0;fillColor=none;top=0;left=0;bottom=0;right=0;overflow=hidden;pointerEvents=1;" parent="xn0J_1aLD7OM7Lsq-6MU-97" vertex="1">
                    <mxGeometry x="920" width="100" height="40" as="geometry">
                        <mxRectangle width="100" height="40" as="alternateBounds"/>
                    </mxGeometry>
                </mxCell>
                <mxCell id="xn0J_1aLD7OM7Lsq-6MU-107" style="shape=tableRow;horizontal=0;startSize=0;swimlaneHead=0;swimlaneBody=0;top=0;left=0;bottom=0;right=0;collapsible=0;dropTarget=0;fillColor=none;points=[[0,0.5],[1,0.5]];portConstraint=eastwest;" parent="xn0J_1aLD7OM7Lsq-6MU-27" vertex="1">
                    <mxGeometry y="160" width="1020" height="40" as="geometry"/>
                </mxCell>
                <mxCell id="xn0J_1aLD7OM7Lsq-6MU-108" value="Ann" style="shape=partialRectangle;html=1;whiteSpace=wrap;connectable=0;fillColor=none;top=0;left=0;bottom=0;right=0;overflow=hidden;" parent="xn0J_1aLD7OM7Lsq-6MU-107" vertex="1">
                    <mxGeometry width="110" height="40" as="geometry">
                        <mxRectangle width="110" height="40" as="alternateBounds"/>
                    </mxGeometry>
                </mxCell>
                <mxCell id="xn0J_1aLD7OM7Lsq-6MU-109" value="Tseng" style="shape=partialRectangle;html=1;whiteSpace=wrap;connectable=0;fillColor=none;top=0;left=0;bottom=0;right=0;overflow=hidden;" parent="xn0J_1aLD7OM7Lsq-6MU-107" vertex="1">
                    <mxGeometry x="110" width="120" height="40" as="geometry">
                        <mxRectangle width="120" height="40" as="alternateBounds"/>
                    </mxGeometry>
                </mxCell>
                <mxCell id="xn0J_1aLD7OM7Lsq-6MU-110" value="Kelowna" style="shape=partialRectangle;html=1;whiteSpace=wrap;connectable=0;fillColor=none;top=0;left=0;bottom=0;right=0;overflow=hidden;pointerEvents=1;" parent="xn0J_1aLD7OM7Lsq-6MU-107" vertex="1">
                    <mxGeometry x="230" width="100" height="40" as="geometry">
                        <mxRectangle width="100" height="40" as="alternateBounds"/>
                    </mxGeometry>
                </mxCell>
                <mxCell id="xn0J_1aLD7OM7Lsq-6MU-111" value="cabin next to the lake" style="shape=partialRectangle;html=1;whiteSpace=wrap;connectable=0;fillColor=none;top=0;left=0;bottom=0;right=0;overflow=hidden;pointerEvents=1;" parent="xn0J_1aLD7OM7Lsq-6MU-107" vertex="1">
                    <mxGeometry x="330" width="140" height="40" as="geometry">
                        <mxRectangle width="140" height="40" as="alternateBounds"/>
                    </mxGeometry>
                </mxCell>
                <mxCell id="xn0J_1aLD7OM7Lsq-6MU-112" value="Kyla" style="shape=partialRectangle;html=1;whiteSpace=wrap;connectable=0;fillColor=none;top=0;left=0;bottom=0;right=0;overflow=hidden;pointerEvents=1;" parent="xn0J_1aLD7OM7Lsq-6MU-107" vertex="1">
                    <mxGeometry x="470" width="130" height="40" as="geometry">
                        <mxRectangle width="130" height="40" as="alternateBounds"/>
                    </mxGeometry>
                </mxCell>
                <mxCell id="xn0J_1aLD7OM7Lsq-6MU-113" value="Friso" style="shape=partialRectangle;html=1;whiteSpace=wrap;connectable=0;fillColor=none;top=0;left=0;bottom=0;right=0;overflow=hidden;pointerEvents=1;" parent="xn0J_1aLD7OM7Lsq-6MU-107" vertex="1">
                    <mxGeometry x="600" width="130" height="40" as="geometry">
                        <mxRectangle width="130" height="40" as="alternateBounds"/>
                    </mxGeometry>
                </mxCell>
                <mxCell id="xn0J_1aLD7OM7Lsq-6MU-114" value="gender reveal" style="shape=partialRectangle;html=1;whiteSpace=wrap;connectable=0;fillColor=none;top=0;left=0;bottom=0;right=0;overflow=hidden;pointerEvents=1;" parent="xn0J_1aLD7OM7Lsq-6MU-107" vertex="1">
                    <mxGeometry x="730" width="90" height="40" as="geometry">
                        <mxRectangle width="90" height="40" as="alternateBounds"/>
                    </mxGeometry>
                </mxCell>
                <mxCell id="xn0J_1aLD7OM7Lsq-6MU-115" value="2025-03-15" style="shape=partialRectangle;html=1;whiteSpace=wrap;connectable=0;fillColor=none;top=0;left=0;bottom=0;right=0;overflow=hidden;pointerEvents=1;" parent="xn0J_1aLD7OM7Lsq-6MU-107" vertex="1">
                    <mxGeometry x="820" width="100" height="40" as="geometry">
                        <mxRectangle width="100" height="40" as="alternateBounds"/>
                    </mxGeometry>
                </mxCell>
                <mxCell id="xn0J_1aLD7OM7Lsq-6MU-116" value="1700" style="shape=partialRectangle;html=1;whiteSpace=wrap;connectable=0;fillColor=none;top=0;left=0;bottom=0;right=0;overflow=hidden;pointerEvents=1;" parent="xn0J_1aLD7OM7Lsq-6MU-107" vertex="1">
                    <mxGeometry x="920" width="100" height="40" as="geometry">
                        <mxRectangle width="100" height="40" as="alternateBounds"/>
                    </mxGeometry>
                </mxCell>
                <mxCell id="xn0J_1aLD7OM7Lsq-6MU-117" style="shape=tableRow;horizontal=0;startSize=0;swimlaneHead=0;swimlaneBody=0;top=0;left=0;bottom=0;right=0;collapsible=0;dropTarget=0;fillColor=none;points=[[0,0.5],[1,0.5]];portConstraint=eastwest;" parent="xn0J_1aLD7OM7Lsq-6MU-27" vertex="1">
                    <mxGeometry y="200" width="1020" height="40" as="geometry"/>
                </mxCell>
                <mxCell id="xn0J_1aLD7OM7Lsq-6MU-118" value="Julia" style="shape=partialRectangle;html=1;whiteSpace=wrap;connectable=0;fillColor=none;top=0;left=0;bottom=0;right=0;overflow=hidden;" parent="xn0J_1aLD7OM7Lsq-6MU-117" vertex="1">
                    <mxGeometry width="110" height="40" as="geometry">
                        <mxRectangle width="110" height="40" as="alternateBounds"/>
                    </mxGeometry>
                </mxCell>
                <mxCell id="xn0J_1aLD7OM7Lsq-6MU-119" value="Bubbles" style="shape=partialRectangle;html=1;whiteSpace=wrap;connectable=0;fillColor=none;top=0;left=0;bottom=0;right=0;overflow=hidden;" parent="xn0J_1aLD7OM7Lsq-6MU-117" vertex="1">
                    <mxGeometry x="110" width="120" height="40" as="geometry">
                        <mxRectangle width="120" height="40" as="alternateBounds"/>
                    </mxGeometry>
                </mxCell>
                <mxCell id="xn0J_1aLD7OM7Lsq-6MU-120" value="Montreal" style="shape=partialRectangle;html=1;whiteSpace=wrap;connectable=0;fillColor=none;top=0;left=0;bottom=0;right=0;overflow=hidden;pointerEvents=1;" parent="xn0J_1aLD7OM7Lsq-6MU-117" vertex="1">
                    <mxGeometry x="230" width="100" height="40" as="geometry">
                        <mxRectangle width="100" height="40" as="alternateBounds"/>
                    </mxGeometry>
                </mxCell>
                <mxCell id="xn0J_1aLD7OM7Lsq-6MU-121" value="the cat cafe" style="shape=partialRectangle;html=1;whiteSpace=wrap;connectable=0;fillColor=none;top=0;left=0;bottom=0;right=0;overflow=hidden;pointerEvents=1;" parent="xn0J_1aLD7OM7Lsq-6MU-117" vertex="1">
                    <mxGeometry x="330" width="140" height="40" as="geometry">
                        <mxRectangle width="140" height="40" as="alternateBounds"/>
                    </mxGeometry>
                </mxCell>
                <mxCell id="xn0J_1aLD7OM7Lsq-6MU-122" value="Hadi" style="shape=partialRectangle;html=1;whiteSpace=wrap;connectable=0;fillColor=none;top=0;left=0;bottom=0;right=0;overflow=hidden;pointerEvents=1;" parent="xn0J_1aLD7OM7Lsq-6MU-117" vertex="1">
                    <mxGeometry x="470" width="130" height="40" as="geometry">
                        <mxRectangle width="130" height="40" as="alternateBounds"/>
                    </mxGeometry>
                </mxCell>
                <mxCell id="xn0J_1aLD7OM7Lsq-6MU-123" value="Robertson" style="shape=partialRectangle;html=1;whiteSpace=wrap;connectable=0;fillColor=none;top=0;left=0;bottom=0;right=0;overflow=hidden;pointerEvents=1;" parent="xn0J_1aLD7OM7Lsq-6MU-117" vertex="1">
                    <mxGeometry x="600" width="130" height="40" as="geometry">
                        <mxRectangle width="130" height="40" as="alternateBounds"/>
                    </mxGeometry>
                </mxCell>
                <mxCell id="xn0J_1aLD7OM7Lsq-6MU-124" value="gender reveal" style="shape=partialRectangle;html=1;whiteSpace=wrap;connectable=0;fillColor=none;top=0;left=0;bottom=0;right=0;overflow=hidden;pointerEvents=1;" parent="xn0J_1aLD7OM7Lsq-6MU-117" vertex="1">
                    <mxGeometry x="730" width="90" height="40" as="geometry">
                        <mxRectangle width="90" height="40" as="alternateBounds"/>
                    </mxGeometry>
                </mxCell>
                <mxCell id="xn0J_1aLD7OM7Lsq-6MU-125" value="2024-04-23" style="shape=partialRectangle;html=1;whiteSpace=wrap;connectable=0;fillColor=none;top=0;left=0;bottom=0;right=0;overflow=hidden;pointerEvents=1;" parent="xn0J_1aLD7OM7Lsq-6MU-117" vertex="1">
                    <mxGeometry x="820" width="100" height="40" as="geometry">
                        <mxRectangle width="100" height="40" as="alternateBounds"/>
                    </mxGeometry>
                </mxCell>
                <mxCell id="xn0J_1aLD7OM7Lsq-6MU-126" value="3400" style="shape=partialRectangle;html=1;whiteSpace=wrap;connectable=0;fillColor=none;top=0;left=0;bottom=0;right=0;overflow=hidden;pointerEvents=1;" parent="xn0J_1aLD7OM7Lsq-6MU-117" vertex="1">
                    <mxGeometry x="920" width="100" height="40" as="geometry">
                        <mxRectangle width="100" height="40" as="alternateBounds"/>
                    </mxGeometry>
                </mxCell>
                <mxCell id="xn0J_1aLD7OM7Lsq-6MU-127" style="shape=tableRow;horizontal=0;startSize=0;swimlaneHead=0;swimlaneBody=0;top=0;left=0;bottom=0;right=0;collapsible=0;dropTarget=0;fillColor=none;points=[[0,0.5],[1,0.5]];portConstraint=eastwest;" parent="xn0J_1aLD7OM7Lsq-6MU-27" vertex="1">
                    <mxGeometry y="240" width="1020" height="40" as="geometry"/>
                </mxCell>
                <mxCell id="xn0J_1aLD7OM7Lsq-6MU-128" style="shape=partialRectangle;html=1;whiteSpace=wrap;connectable=0;fillColor=none;top=0;left=0;bottom=0;right=0;overflow=hidden;" parent="xn0J_1aLD7OM7Lsq-6MU-127" vertex="1">
                    <mxGeometry width="110" height="40" as="geometry">
                        <mxRectangle width="110" height="40" as="alternateBounds"/>
                    </mxGeometry>
                </mxCell>
                <mxCell id="xn0J_1aLD7OM7Lsq-6MU-129" style="shape=partialRectangle;html=1;whiteSpace=wrap;connectable=0;fillColor=none;top=0;left=0;bottom=0;right=0;overflow=hidden;" parent="xn0J_1aLD7OM7Lsq-6MU-127" vertex="1">
                    <mxGeometry x="110" width="120" height="40" as="geometry">
                        <mxRectangle width="120" height="40" as="alternateBounds"/>
                    </mxGeometry>
                </mxCell>
                <mxCell id="xn0J_1aLD7OM7Lsq-6MU-130" style="shape=partialRectangle;html=1;whiteSpace=wrap;connectable=0;fillColor=none;top=0;left=0;bottom=0;right=0;overflow=hidden;pointerEvents=1;" parent="xn0J_1aLD7OM7Lsq-6MU-127" vertex="1">
                    <mxGeometry x="230" width="100" height="40" as="geometry">
                        <mxRectangle width="100" height="40" as="alternateBounds"/>
                    </mxGeometry>
                </mxCell>
                <mxCell id="xn0J_1aLD7OM7Lsq-6MU-131" style="shape=partialRectangle;html=1;whiteSpace=wrap;connectable=0;fillColor=none;top=0;left=0;bottom=0;right=0;overflow=hidden;pointerEvents=1;" parent="xn0J_1aLD7OM7Lsq-6MU-127" vertex="1">
                    <mxGeometry x="330" width="140" height="40" as="geometry">
                        <mxRectangle width="140" height="40" as="alternateBounds"/>
                    </mxGeometry>
                </mxCell>
                <mxCell id="xn0J_1aLD7OM7Lsq-6MU-132" style="shape=partialRectangle;html=1;whiteSpace=wrap;connectable=0;fillColor=none;top=0;left=0;bottom=0;right=0;overflow=hidden;pointerEvents=1;" parent="xn0J_1aLD7OM7Lsq-6MU-127" vertex="1">
                    <mxGeometry x="470" width="130" height="40" as="geometry">
                        <mxRectangle width="130" height="40" as="alternateBounds"/>
                    </mxGeometry>
                </mxCell>
                <mxCell id="xn0J_1aLD7OM7Lsq-6MU-133" style="shape=partialRectangle;html=1;whiteSpace=wrap;connectable=0;fillColor=none;top=0;left=0;bottom=0;right=0;overflow=hidden;pointerEvents=1;" parent="xn0J_1aLD7OM7Lsq-6MU-127" vertex="1">
                    <mxGeometry x="600" width="130" height="40" as="geometry">
                        <mxRectangle width="130" height="40" as="alternateBounds"/>
                    </mxGeometry>
                </mxCell>
                <mxCell id="xn0J_1aLD7OM7Lsq-6MU-134" style="shape=partialRectangle;html=1;whiteSpace=wrap;connectable=0;fillColor=none;top=0;left=0;bottom=0;right=0;overflow=hidden;pointerEvents=1;" parent="xn0J_1aLD7OM7Lsq-6MU-127" vertex="1">
                    <mxGeometry x="730" width="90" height="40" as="geometry">
                        <mxRectangle width="90" height="40" as="alternateBounds"/>
                    </mxGeometry>
                </mxCell>
                <mxCell id="xn0J_1aLD7OM7Lsq-6MU-135" style="shape=partialRectangle;html=1;whiteSpace=wrap;connectable=0;fillColor=none;top=0;left=0;bottom=0;right=0;overflow=hidden;pointerEvents=1;" parent="xn0J_1aLD7OM7Lsq-6MU-127" vertex="1">
                    <mxGeometry x="820" width="100" height="40" as="geometry">
                        <mxRectangle width="100" height="40" as="alternateBounds"/>
                    </mxGeometry>
                </mxCell>
                <mxCell id="xn0J_1aLD7OM7Lsq-6MU-136" style="shape=partialRectangle;html=1;whiteSpace=wrap;connectable=0;fillColor=none;top=0;left=0;bottom=0;right=0;overflow=hidden;pointerEvents=1;" parent="xn0J_1aLD7OM7Lsq-6MU-127" vertex="1">
                    <mxGeometry x="920" width="100" height="40" as="geometry">
                        <mxRectangle width="100" height="40" as="alternateBounds"/>
                    </mxGeometry>
                </mxCell>
                <mxCell id="xn0J_1aLD7OM7Lsq-6MU-137" value="Customer" style="shape=table;startSize=30;container=1;collapsible=0;childLayout=tableLayout;fontStyle=1;align=center;labelBackgroundColor=default;" parent="1" vertex="1">
                    <mxGeometry x="90" y="500" width="500" height="230" as="geometry"/>
                </mxCell>
                <mxCell id="xn0J_1aLD7OM7Lsq-6MU-138" value="" style="shape=tableRow;horizontal=0;startSize=0;swimlaneHead=0;swimlaneBody=0;top=0;left=0;bottom=0;right=0;collapsible=0;dropTarget=0;fillColor=none;points=[[0,0.5],[1,0.5]];portConstraint=eastwest;" parent="xn0J_1aLD7OM7Lsq-6MU-137" vertex="1">
                    <mxGeometry y="30" width="500" height="40" as="geometry"/>
                </mxCell>
                <mxCell id="xn0J_1aLD7OM7Lsq-6MU-139" value="" style="shape=partialRectangle;html=1;whiteSpace=wrap;connectable=0;fillColor=#dae8fc;top=0;left=0;bottom=0;right=0;overflow=hidden;strokeColor=#6c8ebf;" parent="xn0J_1aLD7OM7Lsq-6MU-138" vertex="1">
                    <mxGeometry width="80" height="40" as="geometry">
                        <mxRectangle width="80" height="40" as="alternateBounds"/>
                    </mxGeometry>
                </mxCell>
                <mxCell id="xn0J_1aLD7OM7Lsq-6MU-140" value="firstName" style="shape=partialRectangle;html=1;whiteSpace=wrap;connectable=0;fillColor=#dae8fc;top=0;left=0;bottom=0;right=0;overflow=hidden;strokeColor=#6c8ebf;" parent="xn0J_1aLD7OM7Lsq-6MU-138" vertex="1">
                    <mxGeometry x="80" width="80" height="40" as="geometry">
                        <mxRectangle width="80" height="40" as="alternateBounds"/>
                    </mxGeometry>
                </mxCell>
                <mxCell id="xn0J_1aLD7OM7Lsq-6MU-141" value="lastName" style="shape=partialRectangle;html=1;whiteSpace=wrap;connectable=0;fillColor=#dae8fc;top=0;left=0;bottom=0;right=0;overflow=hidden;strokeColor=#6c8ebf;" parent="xn0J_1aLD7OM7Lsq-6MU-138" vertex="1">
                    <mxGeometry x="160" width="110" height="40" as="geometry">
                        <mxRectangle width="110" height="40" as="alternateBounds"/>
                    </mxGeometry>
                </mxCell>
                <mxCell id="xn0J_1aLD7OM7Lsq-6MU-150" value="password" style="shape=partialRectangle;html=1;whiteSpace=wrap;connectable=0;fillColor=#dae8fc;top=0;left=0;bottom=0;right=0;overflow=hidden;strokeColor=#6c8ebf;" parent="xn0J_1aLD7OM7Lsq-6MU-138" vertex="1">
                    <mxGeometry x="270" width="100" height="40" as="geometry">
                        <mxRectangle width="100" height="40" as="alternateBounds"/>
                    </mxGeometry>
                </mxCell>
                <mxCell id="xn0J_1aLD7OM7Lsq-6MU-153" value="emailId" style="shape=partialRectangle;html=1;whiteSpace=wrap;connectable=0;fillColor=#dae8fc;top=0;left=0;bottom=0;right=0;overflow=hidden;strokeColor=#6c8ebf;" parent="xn0J_1aLD7OM7Lsq-6MU-138" vertex="1">
                    <mxGeometry x="370" width="130" height="40" as="geometry">
                        <mxRectangle width="130" height="40" as="alternateBounds"/>
                    </mxGeometry>
                </mxCell>
                <mxCell id="xn0J_1aLD7OM7Lsq-6MU-142" value="" style="shape=tableRow;horizontal=0;startSize=0;swimlaneHead=0;swimlaneBody=0;top=0;left=0;bottom=0;right=0;collapsible=0;dropTarget=0;fillColor=none;points=[[0,0.5],[1,0.5]];portConstraint=eastwest;" parent="xn0J_1aLD7OM7Lsq-6MU-137" vertex="1">
                    <mxGeometry y="70" width="500" height="40" as="geometry"/>
                </mxCell>
                <mxCell id="xn0J_1aLD7OM7Lsq-6MU-143" value="" style="shape=partialRectangle;html=1;whiteSpace=wrap;connectable=0;fillColor=none;top=0;left=0;bottom=0;right=0;overflow=hidden;" parent="xn0J_1aLD7OM7Lsq-6MU-142" vertex="1">
                    <mxGeometry width="80" height="40" as="geometry">
                        <mxRectangle width="80" height="40" as="alternateBounds"/>
                    </mxGeometry>
                </mxCell>
                <mxCell id="xn0J_1aLD7OM7Lsq-6MU-144" value="Kyla" style="shape=partialRectangle;html=1;whiteSpace=wrap;connectable=0;fillColor=none;top=0;left=0;bottom=0;right=0;overflow=hidden;" parent="xn0J_1aLD7OM7Lsq-6MU-142" vertex="1">
                    <mxGeometry x="80" width="80" height="40" as="geometry">
                        <mxRectangle width="80" height="40" as="alternateBounds"/>
                    </mxGeometry>
                </mxCell>
                <mxCell id="xn0J_1aLD7OM7Lsq-6MU-145" value="Friso" style="shape=partialRectangle;html=1;whiteSpace=wrap;connectable=0;fillColor=none;top=0;left=0;bottom=0;right=0;overflow=hidden;" parent="xn0J_1aLD7OM7Lsq-6MU-142" vertex="1">
                    <mxGeometry x="160" width="110" height="40" as="geometry">
                        <mxRectangle width="110" height="40" as="alternateBounds"/>
                    </mxGeometry>
                </mxCell>
                <mxCell id="xn0J_1aLD7OM7Lsq-6MU-151" value="KylaF@" style="shape=partialRectangle;html=1;whiteSpace=wrap;connectable=0;fillColor=none;top=0;left=0;bottom=0;right=0;overflow=hidden;" parent="xn0J_1aLD7OM7Lsq-6MU-142" vertex="1">
                    <mxGeometry x="270" width="100" height="40" as="geometry">
                        <mxRectangle width="100" height="40" as="alternateBounds"/>
                    </mxGeometry>
                </mxCell>
                <mxCell id="xn0J_1aLD7OM7Lsq-6MU-154" value="kylaf@gmail.com" style="shape=partialRectangle;html=1;whiteSpace=wrap;connectable=0;fillColor=none;top=0;left=0;bottom=0;right=0;overflow=hidden;" parent="xn0J_1aLD7OM7Lsq-6MU-142" vertex="1">
                    <mxGeometry x="370" width="130" height="40" as="geometry">
                        <mxRectangle width="130" height="40" as="alternateBounds"/>
                    </mxGeometry>
                </mxCell>
                <mxCell id="xn0J_1aLD7OM7Lsq-6MU-146" value="" style="shape=tableRow;horizontal=0;startSize=0;swimlaneHead=0;swimlaneBody=0;top=0;left=0;bottom=0;right=0;collapsible=0;dropTarget=0;fillColor=none;points=[[0,0.5],[1,0.5]];portConstraint=eastwest;" parent="xn0J_1aLD7OM7Lsq-6MU-137" vertex="1">
                    <mxGeometry y="110" width="500" height="40" as="geometry"/>
                </mxCell>
                <mxCell id="xn0J_1aLD7OM7Lsq-6MU-147" value="" style="shape=partialRectangle;html=1;whiteSpace=wrap;connectable=0;fillColor=none;top=0;left=0;bottom=0;right=0;overflow=hidden;" parent="xn0J_1aLD7OM7Lsq-6MU-146" vertex="1">
                    <mxGeometry width="80" height="40" as="geometry">
                        <mxRectangle width="80" height="40" as="alternateBounds"/>
                    </mxGeometry>
                </mxCell>
                <mxCell id="xn0J_1aLD7OM7Lsq-6MU-148" value="Hadi" style="shape=partialRectangle;html=1;whiteSpace=wrap;connectable=0;fillColor=none;top=0;left=0;bottom=0;right=0;overflow=hidden;" parent="xn0J_1aLD7OM7Lsq-6MU-146" vertex="1">
                    <mxGeometry x="80" width="80" height="40" as="geometry">
                        <mxRectangle width="80" height="40" as="alternateBounds"/>
                    </mxGeometry>
                </mxCell>
                <mxCell id="xn0J_1aLD7OM7Lsq-6MU-149" value="Robertson" style="shape=partialRectangle;html=1;whiteSpace=wrap;connectable=0;fillColor=none;top=0;left=0;bottom=0;right=0;overflow=hidden;" parent="xn0J_1aLD7OM7Lsq-6MU-146" vertex="1">
                    <mxGeometry x="160" width="110" height="40" as="geometry">
                        <mxRectangle width="110" height="40" as="alternateBounds"/>
                    </mxGeometry>
                </mxCell>
                <mxCell id="xn0J_1aLD7OM7Lsq-6MU-152" value="HadiR@" style="shape=partialRectangle;html=1;whiteSpace=wrap;connectable=0;fillColor=none;top=0;left=0;bottom=0;right=0;overflow=hidden;" parent="xn0J_1aLD7OM7Lsq-6MU-146" vertex="1">
                    <mxGeometry x="270" width="100" height="40" as="geometry">
                        <mxRectangle width="100" height="40" as="alternateBounds"/>
                    </mxGeometry>
                </mxCell>
                <mxCell id="xn0J_1aLD7OM7Lsq-6MU-155" value="hadir@gmail.com" style="shape=partialRectangle;html=1;whiteSpace=wrap;connectable=0;fillColor=none;top=0;left=0;bottom=0;right=0;overflow=hidden;" parent="xn0J_1aLD7OM7Lsq-6MU-146" vertex="1">
                    <mxGeometry x="370" width="130" height="40" as="geometry">
                        <mxRectangle width="130" height="40" as="alternateBounds"/>
                    </mxGeometry>
                </mxCell>
                <mxCell id="xn0J_1aLD7OM7Lsq-6MU-156" style="shape=tableRow;horizontal=0;startSize=0;swimlaneHead=0;swimlaneBody=0;top=0;left=0;bottom=0;right=0;collapsible=0;dropTarget=0;fillColor=none;points=[[0,0.5],[1,0.5]];portConstraint=eastwest;" parent="xn0J_1aLD7OM7Lsq-6MU-137" vertex="1">
                    <mxGeometry y="150" width="500" height="40" as="geometry"/>
                </mxCell>
                <mxCell id="xn0J_1aLD7OM7Lsq-6MU-157" style="shape=partialRectangle;html=1;whiteSpace=wrap;connectable=0;fillColor=none;top=0;left=0;bottom=0;right=0;overflow=hidden;" parent="xn0J_1aLD7OM7Lsq-6MU-156" vertex="1">
                    <mxGeometry width="80" height="40" as="geometry">
                        <mxRectangle width="80" height="40" as="alternateBounds"/>
                    </mxGeometry>
                </mxCell>
                <mxCell id="xn0J_1aLD7OM7Lsq-6MU-158" style="shape=partialRectangle;html=1;whiteSpace=wrap;connectable=0;fillColor=none;top=0;left=0;bottom=0;right=0;overflow=hidden;" parent="xn0J_1aLD7OM7Lsq-6MU-156" vertex="1">
                    <mxGeometry x="80" width="80" height="40" as="geometry">
                        <mxRectangle width="80" height="40" as="alternateBounds"/>
                    </mxGeometry>
                </mxCell>
                <mxCell id="xn0J_1aLD7OM7Lsq-6MU-159" style="shape=partialRectangle;html=1;whiteSpace=wrap;connectable=0;fillColor=none;top=0;left=0;bottom=0;right=0;overflow=hidden;" parent="xn0J_1aLD7OM7Lsq-6MU-156" vertex="1">
                    <mxGeometry x="160" width="110" height="40" as="geometry">
                        <mxRectangle width="110" height="40" as="alternateBounds"/>
                    </mxGeometry>
                </mxCell>
                <mxCell id="xn0J_1aLD7OM7Lsq-6MU-160" style="shape=partialRectangle;html=1;whiteSpace=wrap;connectable=0;fillColor=none;top=0;left=0;bottom=0;right=0;overflow=hidden;" parent="xn0J_1aLD7OM7Lsq-6MU-156" vertex="1">
                    <mxGeometry x="270" width="100" height="40" as="geometry">
                        <mxRectangle width="100" height="40" as="alternateBounds"/>
                    </mxGeometry>
                </mxCell>
                <mxCell id="xn0J_1aLD7OM7Lsq-6MU-161" style="shape=partialRectangle;html=1;whiteSpace=wrap;connectable=0;fillColor=none;top=0;left=0;bottom=0;right=0;overflow=hidden;" parent="xn0J_1aLD7OM7Lsq-6MU-156" vertex="1">
                    <mxGeometry x="370" width="130" height="40" as="geometry">
                        <mxRectangle width="130" height="40" as="alternateBounds"/>
                    </mxGeometry>
                </mxCell>
                <mxCell id="xn0J_1aLD7OM7Lsq-6MU-162" style="shape=tableRow;horizontal=0;startSize=0;swimlaneHead=0;swimlaneBody=0;top=0;left=0;bottom=0;right=0;collapsible=0;dropTarget=0;fillColor=none;points=[[0,0.5],[1,0.5]];portConstraint=eastwest;" parent="xn0J_1aLD7OM7Lsq-6MU-137" vertex="1">
                    <mxGeometry y="190" width="500" height="40" as="geometry"/>
                </mxCell>
                <mxCell id="xn0J_1aLD7OM7Lsq-6MU-163" style="shape=partialRectangle;html=1;whiteSpace=wrap;connectable=0;fillColor=none;top=0;left=0;bottom=0;right=0;overflow=hidden;" parent="xn0J_1aLD7OM7Lsq-6MU-162" vertex="1">
                    <mxGeometry width="80" height="40" as="geometry">
                        <mxRectangle width="80" height="40" as="alternateBounds"/>
                    </mxGeometry>
                </mxCell>
                <mxCell id="xn0J_1aLD7OM7Lsq-6MU-164" style="shape=partialRectangle;html=1;whiteSpace=wrap;connectable=0;fillColor=none;top=0;left=0;bottom=0;right=0;overflow=hidden;" parent="xn0J_1aLD7OM7Lsq-6MU-162" vertex="1">
                    <mxGeometry x="80" width="80" height="40" as="geometry">
                        <mxRectangle width="80" height="40" as="alternateBounds"/>
                    </mxGeometry>
                </mxCell>
                <mxCell id="xn0J_1aLD7OM7Lsq-6MU-165" style="shape=partialRectangle;html=1;whiteSpace=wrap;connectable=0;fillColor=none;top=0;left=0;bottom=0;right=0;overflow=hidden;" parent="xn0J_1aLD7OM7Lsq-6MU-162" vertex="1">
                    <mxGeometry x="160" width="110" height="40" as="geometry">
                        <mxRectangle width="110" height="40" as="alternateBounds"/>
                    </mxGeometry>
                </mxCell>
                <mxCell id="xn0J_1aLD7OM7Lsq-6MU-166" style="shape=partialRectangle;html=1;whiteSpace=wrap;connectable=0;fillColor=none;top=0;left=0;bottom=0;right=0;overflow=hidden;" parent="xn0J_1aLD7OM7Lsq-6MU-162" vertex="1">
                    <mxGeometry x="270" width="100" height="40" as="geometry">
                        <mxRectangle width="100" height="40" as="alternateBounds"/>
                    </mxGeometry>
                </mxCell>
                <mxCell id="xn0J_1aLD7OM7Lsq-6MU-167" style="shape=partialRectangle;html=1;whiteSpace=wrap;connectable=0;fillColor=none;top=0;left=0;bottom=0;right=0;overflow=hidden;" parent="xn0J_1aLD7OM7Lsq-6MU-162" vertex="1">
                    <mxGeometry x="370" width="130" height="40" as="geometry">
                        <mxRectangle width="130" height="40" as="alternateBounds"/>
                    </mxGeometry>
                </mxCell>
                <mxCell id="xn0J_1aLD7OM7Lsq-6MU-181" value="Event" style="shape=table;startSize=30;container=1;collapsible=0;childLayout=tableLayout;fontStyle=1;align=center;labelBackgroundColor=default;" parent="1" vertex="1">
                    <mxGeometry x="90" y="790" width="550" height="270" as="geometry"/>
                </mxCell>
                <mxCell id="xn0J_1aLD7OM7Lsq-6MU-182" value="" style="shape=tableRow;horizontal=0;startSize=0;swimlaneHead=0;swimlaneBody=0;top=0;left=0;bottom=0;right=0;collapsible=0;dropTarget=0;fillColor=none;points=[[0,0.5],[1,0.5]];portConstraint=eastwest;" parent="xn0J_1aLD7OM7Lsq-6MU-181" vertex="1">
                    <mxGeometry y="30" width="550" height="40" as="geometry"/>
                </mxCell>
                <mxCell id="xn0J_1aLD7OM7Lsq-6MU-183" value="eventId" style="shape=partialRectangle;html=1;whiteSpace=wrap;connectable=0;fillColor=#dae8fc;top=0;left=0;bottom=0;right=0;overflow=hidden;strokeColor=#6c8ebf;" parent="xn0J_1aLD7OM7Lsq-6MU-182" vertex="1">
                    <mxGeometry width="70" height="40" as="geometry">
                        <mxRectangle width="70" height="40" as="alternateBounds"/>
                    </mxGeometry>
                </mxCell>
                <mxCell id="xn0J_1aLD7OM7Lsq-6MU-184" value="eventName" style="shape=partialRectangle;html=1;whiteSpace=wrap;connectable=0;fillColor=#dae8fc;top=0;left=0;bottom=0;right=0;overflow=hidden;strokeColor=#6c8ebf;" parent="xn0J_1aLD7OM7Lsq-6MU-182" vertex="1">
                    <mxGeometry x="70" width="80" height="40" as="geometry">
                        <mxRectangle width="80" height="40" as="alternateBounds"/>
                    </mxGeometry>
                </mxCell>
                <mxCell id="xn0J_1aLD7OM7Lsq-6MU-185" value="eventDescription" style="shape=partialRectangle;html=1;whiteSpace=wrap;connectable=0;fillColor=#dae8fc;top=0;left=0;bottom=0;right=0;overflow=hidden;strokeColor=#6c8ebf;" parent="xn0J_1aLD7OM7Lsq-6MU-182" vertex="1">
                    <mxGeometry x="150" width="110" height="40" as="geometry">
                        <mxRectangle width="110" height="40" as="alternateBounds"/>
                    </mxGeometry>
                </mxCell>
                <mxCell id="xn0J_1aLD7OM7Lsq-6MU-186" value="eventDate" style="shape=partialRectangle;html=1;whiteSpace=wrap;connectable=0;fillColor=#dae8fc;top=0;left=0;bottom=0;right=0;overflow=hidden;strokeColor=#6c8ebf;" parent="xn0J_1aLD7OM7Lsq-6MU-182" vertex="1">
                    <mxGeometry x="260" width="90" height="40" as="geometry">
                        <mxRectangle width="90" height="40" as="alternateBounds"/>
                    </mxGeometry>
                </mxCell>
                <mxCell id="xn0J_1aLD7OM7Lsq-6MU-187" value="emailId" style="shape=partialRectangle;html=1;whiteSpace=wrap;connectable=0;fillColor=#dae8fc;top=0;left=0;bottom=0;right=0;overflow=hidden;strokeColor=#6c8ebf;" parent="xn0J_1aLD7OM7Lsq-6MU-182" vertex="1">
                    <mxGeometry x="350" width="130" height="40" as="geometry">
                        <mxRectangle width="130" height="40" as="alternateBounds"/>
                    </mxGeometry>
                </mxCell>
                <mxCell id="xn0J_1aLD7OM7Lsq-6MU-212" value="backyardId" style="shape=partialRectangle;html=1;whiteSpace=wrap;connectable=0;fillColor=#dae8fc;top=0;left=0;bottom=0;right=0;overflow=hidden;strokeColor=#6c8ebf;" parent="xn0J_1aLD7OM7Lsq-6MU-182" vertex="1">
                    <mxGeometry x="480" width="70" height="40" as="geometry">
                        <mxRectangle width="70" height="40" as="alternateBounds"/>
                    </mxGeometry>
                </mxCell>
                <mxCell id="xn0J_1aLD7OM7Lsq-6MU-188" value="" style="shape=tableRow;horizontal=0;startSize=0;swimlaneHead=0;swimlaneBody=0;top=0;left=0;bottom=0;right=0;collapsible=0;dropTarget=0;fillColor=none;points=[[0,0.5],[1,0.5]];portConstraint=eastwest;" parent="xn0J_1aLD7OM7Lsq-6MU-181" vertex="1">
                    <mxGeometry y="70" width="550" height="40" as="geometry"/>
                </mxCell>
                <mxCell id="xn0J_1aLD7OM7Lsq-6MU-189" value="001" style="shape=partialRectangle;html=1;whiteSpace=wrap;connectable=0;fillColor=none;top=0;left=0;bottom=0;right=0;overflow=hidden;" parent="xn0J_1aLD7OM7Lsq-6MU-188" vertex="1">
                    <mxGeometry width="70" height="40" as="geometry">
                        <mxRectangle width="70" height="40" as="alternateBounds"/>
                    </mxGeometry>
                </mxCell>
                <mxCell id="xn0J_1aLD7OM7Lsq-6MU-190" value="K&amp;amp;A" style="shape=partialRectangle;html=1;whiteSpace=wrap;connectable=0;fillColor=none;top=0;left=0;bottom=0;right=0;overflow=hidden;" parent="xn0J_1aLD7OM7Lsq-6MU-188" vertex="1">
                    <mxGeometry x="70" width="80" height="40" as="geometry">
                        <mxRectangle width="80" height="40" as="alternateBounds"/>
                    </mxGeometry>
                </mxCell>
                <mxCell id="xn0J_1aLD7OM7Lsq-6MU-191" value="getting married" style="shape=partialRectangle;html=1;whiteSpace=wrap;connectable=0;fillColor=none;top=0;left=0;bottom=0;right=0;overflow=hidden;" parent="xn0J_1aLD7OM7Lsq-6MU-188" vertex="1">
                    <mxGeometry x="150" width="110" height="40" as="geometry">
                        <mxRectangle width="110" height="40" as="alternateBounds"/>
                    </mxGeometry>
                </mxCell>
                <mxCell id="xn0J_1aLD7OM7Lsq-6MU-192" value="&lt;span&gt;2022-08-23&lt;/span&gt;" style="shape=partialRectangle;html=1;whiteSpace=wrap;connectable=0;fillColor=none;top=0;left=0;bottom=0;right=0;overflow=hidden;" parent="xn0J_1aLD7OM7Lsq-6MU-188" vertex="1">
                    <mxGeometry x="260" width="90" height="40" as="geometry">
                        <mxRectangle width="90" height="40" as="alternateBounds"/>
                    </mxGeometry>
                </mxCell>
                <mxCell id="xn0J_1aLD7OM7Lsq-6MU-193" value="kylaf@gmail.com" style="shape=partialRectangle;html=1;whiteSpace=wrap;connectable=0;fillColor=none;top=0;left=0;bottom=0;right=0;overflow=hidden;" parent="xn0J_1aLD7OM7Lsq-6MU-188" vertex="1">
                    <mxGeometry x="350" width="130" height="40" as="geometry">
                        <mxRectangle width="130" height="40" as="alternateBounds"/>
                    </mxGeometry>
                </mxCell>
                <mxCell id="xn0J_1aLD7OM7Lsq-6MU-213" value="001" style="shape=partialRectangle;html=1;whiteSpace=wrap;connectable=0;fillColor=none;top=0;left=0;bottom=0;right=0;overflow=hidden;" parent="xn0J_1aLD7OM7Lsq-6MU-188" vertex="1">
                    <mxGeometry x="480" width="70" height="40" as="geometry">
                        <mxRectangle width="70" height="40" as="alternateBounds"/>
                    </mxGeometry>
                </mxCell>
                <mxCell id="xn0J_1aLD7OM7Lsq-6MU-194" value="" style="shape=tableRow;horizontal=0;startSize=0;swimlaneHead=0;swimlaneBody=0;top=0;left=0;bottom=0;right=0;collapsible=0;dropTarget=0;fillColor=none;points=[[0,0.5],[1,0.5]];portConstraint=eastwest;" parent="xn0J_1aLD7OM7Lsq-6MU-181" vertex="1">
                    <mxGeometry y="110" width="550" height="40" as="geometry"/>
                </mxCell>
                <mxCell id="xn0J_1aLD7OM7Lsq-6MU-195" value="002" style="shape=partialRectangle;html=1;whiteSpace=wrap;connectable=0;fillColor=none;top=0;left=0;bottom=0;right=0;overflow=hidden;" parent="xn0J_1aLD7OM7Lsq-6MU-194" vertex="1">
                    <mxGeometry width="70" height="40" as="geometry">
                        <mxRectangle width="70" height="40" as="alternateBounds"/>
                    </mxGeometry>
                </mxCell>
                <mxCell id="xn0J_1aLD7OM7Lsq-6MU-196" value="K&amp;amp;A2" style="shape=partialRectangle;html=1;whiteSpace=wrap;connectable=0;fillColor=none;top=0;left=0;bottom=0;right=0;overflow=hidden;" parent="xn0J_1aLD7OM7Lsq-6MU-194" vertex="1">
                    <mxGeometry x="70" width="80" height="40" as="geometry">
                        <mxRectangle width="80" height="40" as="alternateBounds"/>
                    </mxGeometry>
                </mxCell>
                <mxCell id="xn0J_1aLD7OM7Lsq-6MU-197" value="wedding anniversary" style="shape=partialRectangle;html=1;whiteSpace=wrap;connectable=0;fillColor=none;top=0;left=0;bottom=0;right=0;overflow=hidden;" parent="xn0J_1aLD7OM7Lsq-6MU-194" vertex="1">
                    <mxGeometry x="150" width="110" height="40" as="geometry">
                        <mxRectangle width="110" height="40" as="alternateBounds"/>
                    </mxGeometry>
                </mxCell>
                <mxCell id="xn0J_1aLD7OM7Lsq-6MU-198" value="&lt;span&gt;2023-08-23&lt;/span&gt;" style="shape=partialRectangle;html=1;whiteSpace=wrap;connectable=0;fillColor=none;top=0;left=0;bottom=0;right=0;overflow=hidden;" parent="xn0J_1aLD7OM7Lsq-6MU-194" vertex="1">
                    <mxGeometry x="260" width="90" height="40" as="geometry">
                        <mxRectangle width="90" height="40" as="alternateBounds"/>
                    </mxGeometry>
                </mxCell>
                <mxCell id="xn0J_1aLD7OM7Lsq-6MU-199" value="kylaf@gmail.com" style="shape=partialRectangle;html=1;whiteSpace=wrap;connectable=0;fillColor=none;top=0;left=0;bottom=0;right=0;overflow=hidden;" parent="xn0J_1aLD7OM7Lsq-6MU-194" vertex="1">
                    <mxGeometry x="350" width="130" height="40" as="geometry">
                        <mxRectangle width="130" height="40" as="alternateBounds"/>
                    </mxGeometry>
                </mxCell>
                <mxCell id="xn0J_1aLD7OM7Lsq-6MU-214" value="001" style="shape=partialRectangle;html=1;whiteSpace=wrap;connectable=0;fillColor=none;top=0;left=0;bottom=0;right=0;overflow=hidden;" parent="xn0J_1aLD7OM7Lsq-6MU-194" vertex="1">
                    <mxGeometry x="480" width="70" height="40" as="geometry">
                        <mxRectangle width="70" height="40" as="alternateBounds"/>
                    </mxGeometry>
                </mxCell>
                <mxCell id="xn0J_1aLD7OM7Lsq-6MU-200" style="shape=tableRow;horizontal=0;startSize=0;swimlaneHead=0;swimlaneBody=0;top=0;left=0;bottom=0;right=0;collapsible=0;dropTarget=0;fillColor=none;points=[[0,0.5],[1,0.5]];portConstraint=eastwest;" parent="xn0J_1aLD7OM7Lsq-6MU-181" vertex="1">
                    <mxGeometry y="150" width="550" height="40" as="geometry"/>
                </mxCell>
                <mxCell id="xn0J_1aLD7OM7Lsq-6MU-201" value="003" style="shape=partialRectangle;html=1;whiteSpace=wrap;connectable=0;fillColor=none;top=0;left=0;bottom=0;right=0;overflow=hidden;" parent="xn0J_1aLD7OM7Lsq-6MU-200" vertex="1">
                    <mxGeometry width="70" height="40" as="geometry">
                        <mxRectangle width="70" height="40" as="alternateBounds"/>
                    </mxGeometry>
                </mxCell>
                <mxCell id="xn0J_1aLD7OM7Lsq-6MU-202" value="h&amp;amp;r" style="shape=partialRectangle;html=1;whiteSpace=wrap;connectable=0;fillColor=none;top=0;left=0;bottom=0;right=0;overflow=hidden;" parent="xn0J_1aLD7OM7Lsq-6MU-200" vertex="1">
                    <mxGeometry x="70" width="80" height="40" as="geometry">
                        <mxRectangle width="80" height="40" as="alternateBounds"/>
                    </mxGeometry>
                </mxCell>
                <mxCell id="xn0J_1aLD7OM7Lsq-6MU-203" value="getting married" style="shape=partialRectangle;html=1;whiteSpace=wrap;connectable=0;fillColor=none;top=0;left=0;bottom=0;right=0;overflow=hidden;" parent="xn0J_1aLD7OM7Lsq-6MU-200" vertex="1">
                    <mxGeometry x="150" width="110" height="40" as="geometry">
                        <mxRectangle width="110" height="40" as="alternateBounds"/>
                    </mxGeometry>
                </mxCell>
                <mxCell id="xn0J_1aLD7OM7Lsq-6MU-204" value="&lt;span&gt;2022-01-14&lt;/span&gt;" style="shape=partialRectangle;html=1;whiteSpace=wrap;connectable=0;fillColor=none;top=0;left=0;bottom=0;right=0;overflow=hidden;" parent="xn0J_1aLD7OM7Lsq-6MU-200" vertex="1">
                    <mxGeometry x="260" width="90" height="40" as="geometry">
                        <mxRectangle width="90" height="40" as="alternateBounds"/>
                    </mxGeometry>
                </mxCell>
                <mxCell id="xn0J_1aLD7OM7Lsq-6MU-205" value="hadir@gmail.com" style="shape=partialRectangle;html=1;whiteSpace=wrap;connectable=0;fillColor=none;top=0;left=0;bottom=0;right=0;overflow=hidden;" parent="xn0J_1aLD7OM7Lsq-6MU-200" vertex="1">
                    <mxGeometry x="350" width="130" height="40" as="geometry">
                        <mxRectangle width="130" height="40" as="alternateBounds"/>
                    </mxGeometry>
                </mxCell>
                <mxCell id="xn0J_1aLD7OM7Lsq-6MU-215" value="003" style="shape=partialRectangle;html=1;whiteSpace=wrap;connectable=0;fillColor=none;top=0;left=0;bottom=0;right=0;overflow=hidden;" parent="xn0J_1aLD7OM7Lsq-6MU-200" vertex="1">
                    <mxGeometry x="480" width="70" height="40" as="geometry">
                        <mxRectangle width="70" height="40" as="alternateBounds"/>
                    </mxGeometry>
                </mxCell>
                <mxCell id="xn0J_1aLD7OM7Lsq-6MU-206" style="shape=tableRow;horizontal=0;startSize=0;swimlaneHead=0;swimlaneBody=0;top=0;left=0;bottom=0;right=0;collapsible=0;dropTarget=0;fillColor=none;points=[[0,0.5],[1,0.5]];portConstraint=eastwest;" parent="xn0J_1aLD7OM7Lsq-6MU-181" vertex="1">
                    <mxGeometry y="190" width="550" height="40" as="geometry"/>
                </mxCell>
                <mxCell id="xn0J_1aLD7OM7Lsq-6MU-207" value="004" style="shape=partialRectangle;html=1;whiteSpace=wrap;connectable=0;fillColor=none;top=0;left=0;bottom=0;right=0;overflow=hidden;" parent="xn0J_1aLD7OM7Lsq-6MU-206" vertex="1">
                    <mxGeometry width="70" height="40" as="geometry">
                        <mxRectangle width="70" height="40" as="alternateBounds"/>
                    </mxGeometry>
                </mxCell>
                <mxCell id="xn0J_1aLD7OM7Lsq-6MU-208" value="K Junior" style="shape=partialRectangle;html=1;whiteSpace=wrap;connectable=0;fillColor=none;top=0;left=0;bottom=0;right=0;overflow=hidden;" parent="xn0J_1aLD7OM7Lsq-6MU-206" vertex="1">
                    <mxGeometry x="70" width="80" height="40" as="geometry">
                        <mxRectangle width="80" height="40" as="alternateBounds"/>
                    </mxGeometry>
                </mxCell>
                <mxCell id="xn0J_1aLD7OM7Lsq-6MU-209" value="gender reveal" style="shape=partialRectangle;html=1;whiteSpace=wrap;connectable=0;fillColor=none;top=0;left=0;bottom=0;right=0;overflow=hidden;" parent="xn0J_1aLD7OM7Lsq-6MU-206" vertex="1">
                    <mxGeometry x="150" width="110" height="40" as="geometry">
                        <mxRectangle width="110" height="40" as="alternateBounds"/>
                    </mxGeometry>
                </mxCell>
                <mxCell id="xn0J_1aLD7OM7Lsq-6MU-210" value="&lt;span style=&quot;color: rgb(0 , 0 , 0) ; font-family: &amp;#34;helvetica&amp;#34; ; font-size: 12px ; font-style: normal ; font-weight: 400 ; letter-spacing: normal ; text-align: center ; text-indent: 0px ; text-transform: none ; word-spacing: 0px ; background-color: rgb(248 , 249 , 250) ; display: inline ; float: none&quot;&gt;2025-03-15&lt;/span&gt;&lt;br&gt;" style="shape=partialRectangle;html=1;whiteSpace=wrap;connectable=0;fillColor=none;top=0;left=0;bottom=0;right=0;overflow=hidden;" parent="xn0J_1aLD7OM7Lsq-6MU-206" vertex="1">
                    <mxGeometry x="260" width="90" height="40" as="geometry">
                        <mxRectangle width="90" height="40" as="alternateBounds"/>
                    </mxGeometry>
                </mxCell>
                <mxCell id="xn0J_1aLD7OM7Lsq-6MU-211" value="kylaf@gmail.com" style="shape=partialRectangle;html=1;whiteSpace=wrap;connectable=0;fillColor=none;top=0;left=0;bottom=0;right=0;overflow=hidden;" parent="xn0J_1aLD7OM7Lsq-6MU-206" vertex="1">
                    <mxGeometry x="350" width="130" height="40" as="geometry">
                        <mxRectangle width="130" height="40" as="alternateBounds"/>
                    </mxGeometry>
                </mxCell>
                <mxCell id="xn0J_1aLD7OM7Lsq-6MU-216" value="003" style="shape=partialRectangle;html=1;whiteSpace=wrap;connectable=0;fillColor=none;top=0;left=0;bottom=0;right=0;overflow=hidden;" parent="xn0J_1aLD7OM7Lsq-6MU-206" vertex="1">
                    <mxGeometry x="480" width="70" height="40" as="geometry">
                        <mxRectangle width="70" height="40" as="alternateBounds"/>
                    </mxGeometry>
                </mxCell>
                <mxCell id="xn0J_1aLD7OM7Lsq-6MU-217" style="shape=tableRow;horizontal=0;startSize=0;swimlaneHead=0;swimlaneBody=0;top=0;left=0;bottom=0;right=0;collapsible=0;dropTarget=0;fillColor=none;points=[[0,0.5],[1,0.5]];portConstraint=eastwest;" parent="xn0J_1aLD7OM7Lsq-6MU-181" vertex="1">
                    <mxGeometry y="230" width="550" height="40" as="geometry"/>
                </mxCell>
                <mxCell id="xn0J_1aLD7OM7Lsq-6MU-218" value="005" style="shape=partialRectangle;html=1;whiteSpace=wrap;connectable=0;fillColor=none;top=0;left=0;bottom=0;right=0;overflow=hidden;" parent="xn0J_1aLD7OM7Lsq-6MU-217" vertex="1">
                    <mxGeometry width="70" height="40" as="geometry">
                        <mxRectangle width="70" height="40" as="alternateBounds"/>
                    </mxGeometry>
                </mxCell>
                <mxCell id="xn0J_1aLD7OM7Lsq-6MU-219" value="H&amp;amp;R junior" style="shape=partialRectangle;html=1;whiteSpace=wrap;connectable=0;fillColor=none;top=0;left=0;bottom=0;right=0;overflow=hidden;" parent="xn0J_1aLD7OM7Lsq-6MU-217" vertex="1">
                    <mxGeometry x="70" width="80" height="40" as="geometry">
                        <mxRectangle width="80" height="40" as="alternateBounds"/>
                    </mxGeometry>
                </mxCell>
                <mxCell id="xn0J_1aLD7OM7Lsq-6MU-220" value="gender reveal" style="shape=partialRectangle;html=1;whiteSpace=wrap;connectable=0;fillColor=none;top=0;left=0;bottom=0;right=0;overflow=hidden;" parent="xn0J_1aLD7OM7Lsq-6MU-217" vertex="1">
                    <mxGeometry x="150" width="110" height="40" as="geometry">
                        <mxRectangle width="110" height="40" as="alternateBounds"/>
                    </mxGeometry>
                </mxCell>
                <mxCell id="xn0J_1aLD7OM7Lsq-6MU-221" value="&lt;span&gt;2024-04-23&lt;/span&gt;" style="shape=partialRectangle;html=1;whiteSpace=wrap;connectable=0;fillColor=none;top=0;left=0;bottom=0;right=0;overflow=hidden;" parent="xn0J_1aLD7OM7Lsq-6MU-217" vertex="1">
                    <mxGeometry x="260" width="90" height="40" as="geometry">
                        <mxRectangle width="90" height="40" as="alternateBounds"/>
                    </mxGeometry>
                </mxCell>
                <mxCell id="xn0J_1aLD7OM7Lsq-6MU-222" value="hadir@gmail.com" style="shape=partialRectangle;html=1;whiteSpace=wrap;connectable=0;fillColor=none;top=0;left=0;bottom=0;right=0;overflow=hidden;" parent="xn0J_1aLD7OM7Lsq-6MU-217" vertex="1">
                    <mxGeometry x="350" width="130" height="40" as="geometry">
                        <mxRectangle width="130" height="40" as="alternateBounds"/>
                    </mxGeometry>
                </mxCell>
                <mxCell id="xn0J_1aLD7OM7Lsq-6MU-223" value="002" style="shape=partialRectangle;html=1;whiteSpace=wrap;connectable=0;fillColor=none;top=0;left=0;bottom=0;right=0;overflow=hidden;" parent="xn0J_1aLD7OM7Lsq-6MU-217" vertex="1">
                    <mxGeometry x="480" width="70" height="40" as="geometry">
                        <mxRectangle width="70" height="40" as="alternateBounds"/>
                    </mxGeometry>
                </mxCell>
                <mxCell id="xn0J_1aLD7OM7Lsq-6MU-224" value="Partner" style="shape=table;startSize=30;container=1;collapsible=0;childLayout=tableLayout;fontStyle=1;align=center;labelBackgroundColor=default;" parent="1" vertex="1">
                    <mxGeometry x="850" y="500" width="500" height="230" as="geometry"/>
                </mxCell>
                <mxCell id="xn0J_1aLD7OM7Lsq-6MU-225" value="" style="shape=tableRow;horizontal=0;startSize=0;swimlaneHead=0;swimlaneBody=0;top=0;left=0;bottom=0;right=0;collapsible=0;dropTarget=0;fillColor=none;points=[[0,0.5],[1,0.5]];portConstraint=eastwest;" parent="xn0J_1aLD7OM7Lsq-6MU-224" vertex="1">
                    <mxGeometry y="30" width="500" height="40" as="geometry"/>
                </mxCell>
                <mxCell id="xn0J_1aLD7OM7Lsq-6MU-226" value="" style="shape=partialRectangle;html=1;whiteSpace=wrap;connectable=0;fillColor=#dae8fc;top=0;left=0;bottom=0;right=0;overflow=hidden;strokeColor=#6c8ebf;" parent="xn0J_1aLD7OM7Lsq-6MU-225" vertex="1">
                    <mxGeometry width="80" height="40" as="geometry">
                        <mxRectangle width="80" height="40" as="alternateBounds"/>
                    </mxGeometry>
                </mxCell>
                <mxCell id="xn0J_1aLD7OM7Lsq-6MU-227" value="firstName" style="shape=partialRectangle;html=1;whiteSpace=wrap;connectable=0;fillColor=#dae8fc;top=0;left=0;bottom=0;right=0;overflow=hidden;strokeColor=#6c8ebf;" parent="xn0J_1aLD7OM7Lsq-6MU-225" vertex="1">
                    <mxGeometry x="80" width="80" height="40" as="geometry">
                        <mxRectangle width="80" height="40" as="alternateBounds"/>
                    </mxGeometry>
                </mxCell>
                <mxCell id="xn0J_1aLD7OM7Lsq-6MU-228" value="lastName" style="shape=partialRectangle;html=1;whiteSpace=wrap;connectable=0;fillColor=#dae8fc;top=0;left=0;bottom=0;right=0;overflow=hidden;strokeColor=#6c8ebf;" parent="xn0J_1aLD7OM7Lsq-6MU-225" vertex="1">
                    <mxGeometry x="160" width="110" height="40" as="geometry">
                        <mxRectangle width="110" height="40" as="alternateBounds"/>
                    </mxGeometry>
                </mxCell>
                <mxCell id="xn0J_1aLD7OM7Lsq-6MU-229" value="password" style="shape=partialRectangle;html=1;whiteSpace=wrap;connectable=0;fillColor=#dae8fc;top=0;left=0;bottom=0;right=0;overflow=hidden;strokeColor=#6c8ebf;" parent="xn0J_1aLD7OM7Lsq-6MU-225" vertex="1">
                    <mxGeometry x="270" width="100" height="40" as="geometry">
                        <mxRectangle width="100" height="40" as="alternateBounds"/>
                    </mxGeometry>
                </mxCell>
                <mxCell id="xn0J_1aLD7OM7Lsq-6MU-230" value="emailId" style="shape=partialRectangle;html=1;whiteSpace=wrap;connectable=0;fillColor=#dae8fc;top=0;left=0;bottom=0;right=0;overflow=hidden;strokeColor=#6c8ebf;" parent="xn0J_1aLD7OM7Lsq-6MU-225" vertex="1">
                    <mxGeometry x="370" width="130" height="40" as="geometry">
                        <mxRectangle width="130" height="40" as="alternateBounds"/>
                    </mxGeometry>
                </mxCell>
                <mxCell id="xn0J_1aLD7OM7Lsq-6MU-231" value="" style="shape=tableRow;horizontal=0;startSize=0;swimlaneHead=0;swimlaneBody=0;top=0;left=0;bottom=0;right=0;collapsible=0;dropTarget=0;fillColor=none;points=[[0,0.5],[1,0.5]];portConstraint=eastwest;" parent="xn0J_1aLD7OM7Lsq-6MU-224" vertex="1">
                    <mxGeometry y="70" width="500" height="40" as="geometry"/>
                </mxCell>
                <mxCell id="xn0J_1aLD7OM7Lsq-6MU-232" value="" style="shape=partialRectangle;html=1;whiteSpace=wrap;connectable=0;fillColor=none;top=0;left=0;bottom=0;right=0;overflow=hidden;" parent="xn0J_1aLD7OM7Lsq-6MU-231" vertex="1">
                    <mxGeometry width="80" height="40" as="geometry">
                        <mxRectangle width="80" height="40" as="alternateBounds"/>
                    </mxGeometry>
                </mxCell>
                <mxCell id="xn0J_1aLD7OM7Lsq-6MU-233" value="&lt;span&gt;Julia&lt;/span&gt;" style="shape=partialRectangle;html=1;whiteSpace=wrap;connectable=0;fillColor=none;top=0;left=0;bottom=0;right=0;overflow=hidden;" parent="xn0J_1aLD7OM7Lsq-6MU-231" vertex="1">
                    <mxGeometry x="80" width="80" height="40" as="geometry">
                        <mxRectangle width="80" height="40" as="alternateBounds"/>
                    </mxGeometry>
                </mxCell>
                <mxCell id="xn0J_1aLD7OM7Lsq-6MU-234" value="&lt;span&gt;Bubbles&lt;/span&gt;" style="shape=partialRectangle;html=1;whiteSpace=wrap;connectable=0;fillColor=none;top=0;left=0;bottom=0;right=0;overflow=hidden;" parent="xn0J_1aLD7OM7Lsq-6MU-231" vertex="1">
                    <mxGeometry x="160" width="110" height="40" as="geometry">
                        <mxRectangle width="110" height="40" as="alternateBounds"/>
                    </mxGeometry>
                </mxCell>
                <mxCell id="xn0J_1aLD7OM7Lsq-6MU-235" value="JuliaB@" style="shape=partialRectangle;html=1;whiteSpace=wrap;connectable=0;fillColor=none;top=0;left=0;bottom=0;right=0;overflow=hidden;" parent="xn0J_1aLD7OM7Lsq-6MU-231" vertex="1">
                    <mxGeometry x="270" width="100" height="40" as="geometry">
                        <mxRectangle width="100" height="40" as="alternateBounds"/>
                    </mxGeometry>
                </mxCell>
                <mxCell id="xn0J_1aLD7OM7Lsq-6MU-236" value="juliab@gmail.com" style="shape=partialRectangle;html=1;whiteSpace=wrap;connectable=0;fillColor=none;top=0;left=0;bottom=0;right=0;overflow=hidden;" parent="xn0J_1aLD7OM7Lsq-6MU-231" vertex="1">
                    <mxGeometry x="370" width="130" height="40" as="geometry">
                        <mxRectangle width="130" height="40" as="alternateBounds"/>
                    </mxGeometry>
                </mxCell>
                <mxCell id="xn0J_1aLD7OM7Lsq-6MU-237" value="" style="shape=tableRow;horizontal=0;startSize=0;swimlaneHead=0;swimlaneBody=0;top=0;left=0;bottom=0;right=0;collapsible=0;dropTarget=0;fillColor=none;points=[[0,0.5],[1,0.5]];portConstraint=eastwest;" parent="xn0J_1aLD7OM7Lsq-6MU-224" vertex="1">
                    <mxGeometry y="110" width="500" height="40" as="geometry"/>
                </mxCell>
                <mxCell id="xn0J_1aLD7OM7Lsq-6MU-238" value="" style="shape=partialRectangle;html=1;whiteSpace=wrap;connectable=0;fillColor=none;top=0;left=0;bottom=0;right=0;overflow=hidden;" parent="xn0J_1aLD7OM7Lsq-6MU-237" vertex="1">
                    <mxGeometry width="80" height="40" as="geometry">
                        <mxRectangle width="80" height="40" as="alternateBounds"/>
                    </mxGeometry>
                </mxCell>
                <mxCell id="xn0J_1aLD7OM7Lsq-6MU-239" value="Ann&lt;br&gt;" style="shape=partialRectangle;html=1;whiteSpace=wrap;connectable=0;fillColor=none;top=0;left=0;bottom=0;right=0;overflow=hidden;" parent="xn0J_1aLD7OM7Lsq-6MU-237" vertex="1">
                    <mxGeometry x="80" width="80" height="40" as="geometry">
                        <mxRectangle width="80" height="40" as="alternateBounds"/>
                    </mxGeometry>
                </mxCell>
                <mxCell id="xn0J_1aLD7OM7Lsq-6MU-240" value="Tseng" style="shape=partialRectangle;html=1;whiteSpace=wrap;connectable=0;fillColor=none;top=0;left=0;bottom=0;right=0;overflow=hidden;" parent="xn0J_1aLD7OM7Lsq-6MU-237" vertex="1">
                    <mxGeometry x="160" width="110" height="40" as="geometry">
                        <mxRectangle width="110" height="40" as="alternateBounds"/>
                    </mxGeometry>
                </mxCell>
                <mxCell id="xn0J_1aLD7OM7Lsq-6MU-241" value="AnnT@" style="shape=partialRectangle;html=1;whiteSpace=wrap;connectable=0;fillColor=none;top=0;left=0;bottom=0;right=0;overflow=hidden;" parent="xn0J_1aLD7OM7Lsq-6MU-237" vertex="1">
                    <mxGeometry x="270" width="100" height="40" as="geometry">
                        <mxRectangle width="100" height="40" as="alternateBounds"/>
                    </mxGeometry>
                </mxCell>
                <mxCell id="xn0J_1aLD7OM7Lsq-6MU-242" value="annt@gmail.com" style="shape=partialRectangle;html=1;whiteSpace=wrap;connectable=0;fillColor=none;top=0;left=0;bottom=0;right=0;overflow=hidden;" parent="xn0J_1aLD7OM7Lsq-6MU-237" vertex="1">
                    <mxGeometry x="370" width="130" height="40" as="geometry">
                        <mxRectangle width="130" height="40" as="alternateBounds"/>
                    </mxGeometry>
                </mxCell>
                <mxCell id="xn0J_1aLD7OM7Lsq-6MU-243" style="shape=tableRow;horizontal=0;startSize=0;swimlaneHead=0;swimlaneBody=0;top=0;left=0;bottom=0;right=0;collapsible=0;dropTarget=0;fillColor=none;points=[[0,0.5],[1,0.5]];portConstraint=eastwest;" parent="xn0J_1aLD7OM7Lsq-6MU-224" vertex="1">
                    <mxGeometry y="150" width="500" height="40" as="geometry"/>
                </mxCell>
                <mxCell id="xn0J_1aLD7OM7Lsq-6MU-244" style="shape=partialRectangle;html=1;whiteSpace=wrap;connectable=0;fillColor=none;top=0;left=0;bottom=0;right=0;overflow=hidden;" parent="xn0J_1aLD7OM7Lsq-6MU-243" vertex="1">
                    <mxGeometry width="80" height="40" as="geometry">
                        <mxRectangle width="80" height="40" as="alternateBounds"/>
                    </mxGeometry>
                </mxCell>
                <mxCell id="xn0J_1aLD7OM7Lsq-6MU-245" style="shape=partialRectangle;html=1;whiteSpace=wrap;connectable=0;fillColor=none;top=0;left=0;bottom=0;right=0;overflow=hidden;" parent="xn0J_1aLD7OM7Lsq-6MU-243" vertex="1">
                    <mxGeometry x="80" width="80" height="40" as="geometry">
                        <mxRectangle width="80" height="40" as="alternateBounds"/>
                    </mxGeometry>
                </mxCell>
                <mxCell id="xn0J_1aLD7OM7Lsq-6MU-246" style="shape=partialRectangle;html=1;whiteSpace=wrap;connectable=0;fillColor=none;top=0;left=0;bottom=0;right=0;overflow=hidden;" parent="xn0J_1aLD7OM7Lsq-6MU-243" vertex="1">
                    <mxGeometry x="160" width="110" height="40" as="geometry">
                        <mxRectangle width="110" height="40" as="alternateBounds"/>
                    </mxGeometry>
                </mxCell>
                <mxCell id="xn0J_1aLD7OM7Lsq-6MU-247" style="shape=partialRectangle;html=1;whiteSpace=wrap;connectable=0;fillColor=none;top=0;left=0;bottom=0;right=0;overflow=hidden;" parent="xn0J_1aLD7OM7Lsq-6MU-243" vertex="1">
                    <mxGeometry x="270" width="100" height="40" as="geometry">
                        <mxRectangle width="100" height="40" as="alternateBounds"/>
                    </mxGeometry>
                </mxCell>
                <mxCell id="xn0J_1aLD7OM7Lsq-6MU-248" style="shape=partialRectangle;html=1;whiteSpace=wrap;connectable=0;fillColor=none;top=0;left=0;bottom=0;right=0;overflow=hidden;" parent="xn0J_1aLD7OM7Lsq-6MU-243" vertex="1">
                    <mxGeometry x="370" width="130" height="40" as="geometry">
                        <mxRectangle width="130" height="40" as="alternateBounds"/>
                    </mxGeometry>
                </mxCell>
                <mxCell id="xn0J_1aLD7OM7Lsq-6MU-249" style="shape=tableRow;horizontal=0;startSize=0;swimlaneHead=0;swimlaneBody=0;top=0;left=0;bottom=0;right=0;collapsible=0;dropTarget=0;fillColor=none;points=[[0,0.5],[1,0.5]];portConstraint=eastwest;" parent="xn0J_1aLD7OM7Lsq-6MU-224" vertex="1">
                    <mxGeometry y="190" width="500" height="40" as="geometry"/>
                </mxCell>
                <mxCell id="xn0J_1aLD7OM7Lsq-6MU-250" style="shape=partialRectangle;html=1;whiteSpace=wrap;connectable=0;fillColor=none;top=0;left=0;bottom=0;right=0;overflow=hidden;" parent="xn0J_1aLD7OM7Lsq-6MU-249" vertex="1">
                    <mxGeometry width="80" height="40" as="geometry">
                        <mxRectangle width="80" height="40" as="alternateBounds"/>
                    </mxGeometry>
                </mxCell>
                <mxCell id="xn0J_1aLD7OM7Lsq-6MU-251" style="shape=partialRectangle;html=1;whiteSpace=wrap;connectable=0;fillColor=none;top=0;left=0;bottom=0;right=0;overflow=hidden;" parent="xn0J_1aLD7OM7Lsq-6MU-249" vertex="1">
                    <mxGeometry x="80" width="80" height="40" as="geometry">
                        <mxRectangle width="80" height="40" as="alternateBounds"/>
                    </mxGeometry>
                </mxCell>
                <mxCell id="xn0J_1aLD7OM7Lsq-6MU-252" style="shape=partialRectangle;html=1;whiteSpace=wrap;connectable=0;fillColor=none;top=0;left=0;bottom=0;right=0;overflow=hidden;" parent="xn0J_1aLD7OM7Lsq-6MU-249" vertex="1">
                    <mxGeometry x="160" width="110" height="40" as="geometry">
                        <mxRectangle width="110" height="40" as="alternateBounds"/>
                    </mxGeometry>
                </mxCell>
                <mxCell id="xn0J_1aLD7OM7Lsq-6MU-253" style="shape=partialRectangle;html=1;whiteSpace=wrap;connectable=0;fillColor=none;top=0;left=0;bottom=0;right=0;overflow=hidden;" parent="xn0J_1aLD7OM7Lsq-6MU-249" vertex="1">
                    <mxGeometry x="270" width="100" height="40" as="geometry">
                        <mxRectangle width="100" height="40" as="alternateBounds"/>
                    </mxGeometry>
                </mxCell>
                <mxCell id="xn0J_1aLD7OM7Lsq-6MU-254" style="shape=partialRectangle;html=1;whiteSpace=wrap;connectable=0;fillColor=none;top=0;left=0;bottom=0;right=0;overflow=hidden;" parent="xn0J_1aLD7OM7Lsq-6MU-249" vertex="1">
                    <mxGeometry x="370" width="130" height="40" as="geometry">
                        <mxRectangle width="130" height="40" as="alternateBounds"/>
                    </mxGeometry>
                </mxCell>
                <mxCell id="xn0J_1aLD7OM7Lsq-6MU-329" value="Backyard" style="shape=table;startSize=30;container=1;collapsible=0;childLayout=tableLayout;fontStyle=1;align=center;labelBackgroundColor=default;" parent="1" vertex="1">
                    <mxGeometry x="850" y="790" width="600" height="270" as="geometry"/>
                </mxCell>
                <mxCell id="xn0J_1aLD7OM7Lsq-6MU-330" value="" style="shape=tableRow;horizontal=0;startSize=0;swimlaneHead=0;swimlaneBody=0;top=0;left=0;bottom=0;right=0;collapsible=0;dropTarget=0;fillColor=none;points=[[0,0.5],[1,0.5]];portConstraint=eastwest;" parent="xn0J_1aLD7OM7Lsq-6MU-329" vertex="1">
                    <mxGeometry y="30" width="600" height="40" as="geometry"/>
                </mxCell>
                <mxCell id="xn0J_1aLD7OM7Lsq-6MU-331" value="backyardId" style="shape=partialRectangle;html=1;whiteSpace=wrap;connectable=0;fillColor=#dae8fc;top=0;left=0;bottom=0;right=0;overflow=hidden;strokeColor=#6c8ebf;" parent="xn0J_1aLD7OM7Lsq-6MU-330" vertex="1">
                    <mxGeometry width="76" height="40" as="geometry">
                        <mxRectangle width="76" height="40" as="alternateBounds"/>
                    </mxGeometry>
                </mxCell>
                <mxCell id="xn0J_1aLD7OM7Lsq-6MU-332" value="backyardName" style="shape=partialRectangle;html=1;whiteSpace=wrap;connectable=0;fillColor=#dae8fc;top=0;left=0;bottom=0;right=0;overflow=hidden;strokeColor=#6c8ebf;" parent="xn0J_1aLD7OM7Lsq-6MU-330" vertex="1">
                    <mxGeometry x="76" width="99" height="40" as="geometry">
                        <mxRectangle width="99" height="40" as="alternateBounds"/>
                    </mxGeometry>
                </mxCell>
                <mxCell id="xn0J_1aLD7OM7Lsq-6MU-333" value="backyardDescription" style="shape=partialRectangle;html=1;whiteSpace=wrap;connectable=0;fillColor=#dae8fc;top=0;left=0;bottom=0;right=0;overflow=hidden;strokeColor=#6c8ebf;" parent="xn0J_1aLD7OM7Lsq-6MU-330" vertex="1">
                    <mxGeometry x="175" width="125" height="40" as="geometry">
                        <mxRectangle width="125" height="40" as="alternateBounds"/>
                    </mxGeometry>
                </mxCell>
                <mxCell id="xn0J_1aLD7OM7Lsq-6MU-334" value="backyardCity" style="shape=partialRectangle;html=1;whiteSpace=wrap;connectable=0;fillColor=#dae8fc;top=0;left=0;bottom=0;right=0;overflow=hidden;strokeColor=#6c8ebf;" parent="xn0J_1aLD7OM7Lsq-6MU-330" vertex="1">
                    <mxGeometry x="300" width="90" height="40" as="geometry">
                        <mxRectangle width="90" height="40" as="alternateBounds"/>
                    </mxGeometry>
                </mxCell>
                <mxCell id="xn0J_1aLD7OM7Lsq-6MU-335" value="backyardCost" style="shape=partialRectangle;html=1;whiteSpace=wrap;connectable=0;fillColor=#dae8fc;top=0;left=0;bottom=0;right=0;overflow=hidden;strokeColor=#6c8ebf;" parent="xn0J_1aLD7OM7Lsq-6MU-330" vertex="1">
                    <mxGeometry x="390" width="80" height="40" as="geometry">
                        <mxRectangle width="80" height="40" as="alternateBounds"/>
                    </mxGeometry>
                </mxCell>
                <mxCell id="xn0J_1aLD7OM7Lsq-6MU-336" value="emailId" style="shape=partialRectangle;html=1;whiteSpace=wrap;connectable=0;fillColor=#dae8fc;top=0;left=0;bottom=0;right=0;overflow=hidden;strokeColor=#6c8ebf;" parent="xn0J_1aLD7OM7Lsq-6MU-330" vertex="1">
                    <mxGeometry x="470" width="130" height="40" as="geometry">
                        <mxRectangle width="130" height="40" as="alternateBounds"/>
                    </mxGeometry>
                </mxCell>
                <mxCell id="xn0J_1aLD7OM7Lsq-6MU-337" value="" style="shape=tableRow;horizontal=0;startSize=0;swimlaneHead=0;swimlaneBody=0;top=0;left=0;bottom=0;right=0;collapsible=0;dropTarget=0;fillColor=none;points=[[0,0.5],[1,0.5]];portConstraint=eastwest;" parent="xn0J_1aLD7OM7Lsq-6MU-329" vertex="1">
                    <mxGeometry y="70" width="600" height="40" as="geometry"/>
                </mxCell>
                <mxCell id="xn0J_1aLD7OM7Lsq-6MU-338" value="001" style="shape=partialRectangle;html=1;whiteSpace=wrap;connectable=0;fillColor=none;top=0;left=0;bottom=0;right=0;overflow=hidden;" parent="xn0J_1aLD7OM7Lsq-6MU-337" vertex="1">
                    <mxGeometry width="76" height="40" as="geometry">
                        <mxRectangle width="76" height="40" as="alternateBounds"/>
                    </mxGeometry>
                </mxCell>
                <mxCell id="xn0J_1aLD7OM7Lsq-6MU-339" value="Binxy J" style="shape=partialRectangle;html=1;whiteSpace=wrap;connectable=0;fillColor=none;top=0;left=0;bottom=0;right=0;overflow=hidden;" parent="xn0J_1aLD7OM7Lsq-6MU-337" vertex="1">
                    <mxGeometry x="76" width="99" height="40" as="geometry">
                        <mxRectangle width="99" height="40" as="alternateBounds"/>
                    </mxGeometry>
                </mxCell>
                <mxCell id="xn0J_1aLD7OM7Lsq-6MU-340" value="&lt;span&gt;beautiful hillside&lt;/span&gt;" style="shape=partialRectangle;html=1;whiteSpace=wrap;connectable=0;fillColor=none;top=0;left=0;bottom=0;right=0;overflow=hidden;" parent="xn0J_1aLD7OM7Lsq-6MU-337" vertex="1">
                    <mxGeometry x="175" width="125" height="40" as="geometry">
                        <mxRectangle width="125" height="40" as="alternateBounds"/>
                    </mxGeometry>
                </mxCell>
                <mxCell id="xn0J_1aLD7OM7Lsq-6MU-341" value="&lt;span&gt;Toronto&lt;/span&gt;" style="shape=partialRectangle;html=1;whiteSpace=wrap;connectable=0;fillColor=none;top=0;left=0;bottom=0;right=0;overflow=hidden;" parent="xn0J_1aLD7OM7Lsq-6MU-337" vertex="1">
                    <mxGeometry x="300" width="90" height="40" as="geometry">
                        <mxRectangle width="90" height="40" as="alternateBounds"/>
                    </mxGeometry>
                </mxCell>
                <mxCell id="xn0J_1aLD7OM7Lsq-6MU-342" value="2300" style="shape=partialRectangle;html=1;whiteSpace=wrap;connectable=0;fillColor=none;top=0;left=0;bottom=0;right=0;overflow=hidden;" parent="xn0J_1aLD7OM7Lsq-6MU-337" vertex="1">
                    <mxGeometry x="390" width="80" height="40" as="geometry">
                        <mxRectangle width="80" height="40" as="alternateBounds"/>
                    </mxGeometry>
                </mxCell>
                <mxCell id="xn0J_1aLD7OM7Lsq-6MU-343" value="juliab@gmail.com" style="shape=partialRectangle;html=1;whiteSpace=wrap;connectable=0;fillColor=none;top=0;left=0;bottom=0;right=0;overflow=hidden;" parent="xn0J_1aLD7OM7Lsq-6MU-337" vertex="1">
                    <mxGeometry x="470" width="130" height="40" as="geometry">
                        <mxRectangle width="130" height="40" as="alternateBounds"/>
                    </mxGeometry>
                </mxCell>
                <mxCell id="xn0J_1aLD7OM7Lsq-6MU-344" value="" style="shape=tableRow;horizontal=0;startSize=0;swimlaneHead=0;swimlaneBody=0;top=0;left=0;bottom=0;right=0;collapsible=0;dropTarget=0;fillColor=none;points=[[0,0.5],[1,0.5]];portConstraint=eastwest;" parent="xn0J_1aLD7OM7Lsq-6MU-329" vertex="1">
                    <mxGeometry y="110" width="600" height="40" as="geometry"/>
                </mxCell>
                <mxCell id="xn0J_1aLD7OM7Lsq-6MU-345" value="002" style="shape=partialRectangle;html=1;whiteSpace=wrap;connectable=0;fillColor=none;top=0;left=0;bottom=0;right=0;overflow=hidden;" parent="xn0J_1aLD7OM7Lsq-6MU-344" vertex="1">
                    <mxGeometry width="76" height="40" as="geometry">
                        <mxRectangle width="76" height="40" as="alternateBounds"/>
                    </mxGeometry>
                </mxCell>
                <mxCell id="xn0J_1aLD7OM7Lsq-6MU-346" value="Kitty J" style="shape=partialRectangle;html=1;whiteSpace=wrap;connectable=0;fillColor=none;top=0;left=0;bottom=0;right=0;overflow=hidden;" parent="xn0J_1aLD7OM7Lsq-6MU-344" vertex="1">
                    <mxGeometry x="76" width="99" height="40" as="geometry">
                        <mxRectangle width="99" height="40" as="alternateBounds"/>
                    </mxGeometry>
                </mxCell>
                <mxCell id="xn0J_1aLD7OM7Lsq-6MU-347" value="cat cafe" style="shape=partialRectangle;html=1;whiteSpace=wrap;connectable=0;fillColor=none;top=0;left=0;bottom=0;right=0;overflow=hidden;" parent="xn0J_1aLD7OM7Lsq-6MU-344" vertex="1">
                    <mxGeometry x="175" width="125" height="40" as="geometry">
                        <mxRectangle width="125" height="40" as="alternateBounds"/>
                    </mxGeometry>
                </mxCell>
                <mxCell id="xn0J_1aLD7OM7Lsq-6MU-348" value="Montreal" style="shape=partialRectangle;html=1;whiteSpace=wrap;connectable=0;fillColor=none;top=0;left=0;bottom=0;right=0;overflow=hidden;" parent="xn0J_1aLD7OM7Lsq-6MU-344" vertex="1">
                    <mxGeometry x="300" width="90" height="40" as="geometry">
                        <mxRectangle width="90" height="40" as="alternateBounds"/>
                    </mxGeometry>
                </mxCell>
                <mxCell id="xn0J_1aLD7OM7Lsq-6MU-349" value="3400" style="shape=partialRectangle;html=1;whiteSpace=wrap;connectable=0;fillColor=none;top=0;left=0;bottom=0;right=0;overflow=hidden;" parent="xn0J_1aLD7OM7Lsq-6MU-344" vertex="1">
                    <mxGeometry x="390" width="80" height="40" as="geometry">
                        <mxRectangle width="80" height="40" as="alternateBounds"/>
                    </mxGeometry>
                </mxCell>
                <mxCell id="xn0J_1aLD7OM7Lsq-6MU-350" value="juliab@gmail.com" style="shape=partialRectangle;html=1;whiteSpace=wrap;connectable=0;fillColor=none;top=0;left=0;bottom=0;right=0;overflow=hidden;" parent="xn0J_1aLD7OM7Lsq-6MU-344" vertex="1">
                    <mxGeometry x="470" width="130" height="40" as="geometry">
                        <mxRectangle width="130" height="40" as="alternateBounds"/>
                    </mxGeometry>
                </mxCell>
                <mxCell id="xn0J_1aLD7OM7Lsq-6MU-351" style="shape=tableRow;horizontal=0;startSize=0;swimlaneHead=0;swimlaneBody=0;top=0;left=0;bottom=0;right=0;collapsible=0;dropTarget=0;fillColor=none;points=[[0,0.5],[1,0.5]];portConstraint=eastwest;" parent="xn0J_1aLD7OM7Lsq-6MU-329" vertex="1">
                    <mxGeometry y="150" width="600" height="40" as="geometry"/>
                </mxCell>
                <mxCell id="xn0J_1aLD7OM7Lsq-6MU-352" value="003" style="shape=partialRectangle;html=1;whiteSpace=wrap;connectable=0;fillColor=none;top=0;left=0;bottom=0;right=0;overflow=hidden;" parent="xn0J_1aLD7OM7Lsq-6MU-351" vertex="1">
                    <mxGeometry width="76" height="40" as="geometry">
                        <mxRectangle width="76" height="40" as="alternateBounds"/>
                    </mxGeometry>
                </mxCell>
                <mxCell id="xn0J_1aLD7OM7Lsq-6MU-353" value="Ribbit A" style="shape=partialRectangle;html=1;whiteSpace=wrap;connectable=0;fillColor=none;top=0;left=0;bottom=0;right=0;overflow=hidden;" parent="xn0J_1aLD7OM7Lsq-6MU-351" vertex="1">
                    <mxGeometry x="76" width="99" height="40" as="geometry">
                        <mxRectangle width="99" height="40" as="alternateBounds"/>
                    </mxGeometry>
                </mxCell>
                <mxCell id="xn0J_1aLD7OM7Lsq-6MU-354" value="cabin next to the lake" style="shape=partialRectangle;html=1;whiteSpace=wrap;connectable=0;fillColor=none;top=0;left=0;bottom=0;right=0;overflow=hidden;" parent="xn0J_1aLD7OM7Lsq-6MU-351" vertex="1">
                    <mxGeometry x="175" width="125" height="40" as="geometry">
                        <mxRectangle width="125" height="40" as="alternateBounds"/>
                    </mxGeometry>
                </mxCell>
                <mxCell id="xn0J_1aLD7OM7Lsq-6MU-355" value="Kelowna" style="shape=partialRectangle;html=1;whiteSpace=wrap;connectable=0;fillColor=none;top=0;left=0;bottom=0;right=0;overflow=hidden;" parent="xn0J_1aLD7OM7Lsq-6MU-351" vertex="1">
                    <mxGeometry x="300" width="90" height="40" as="geometry">
                        <mxRectangle width="90" height="40" as="alternateBounds"/>
                    </mxGeometry>
                </mxCell>
                <mxCell id="xn0J_1aLD7OM7Lsq-6MU-356" value="1700" style="shape=partialRectangle;html=1;whiteSpace=wrap;connectable=0;fillColor=none;top=0;left=0;bottom=0;right=0;overflow=hidden;" parent="xn0J_1aLD7OM7Lsq-6MU-351" vertex="1">
                    <mxGeometry x="390" width="80" height="40" as="geometry">
                        <mxRectangle width="80" height="40" as="alternateBounds"/>
                    </mxGeometry>
                </mxCell>
                <mxCell id="xn0J_1aLD7OM7Lsq-6MU-357" value="annt@gmail.com" style="shape=partialRectangle;html=1;whiteSpace=wrap;connectable=0;fillColor=none;top=0;left=0;bottom=0;right=0;overflow=hidden;" parent="xn0J_1aLD7OM7Lsq-6MU-351" vertex="1">
                    <mxGeometry x="470" width="130" height="40" as="geometry">
                        <mxRectangle width="130" height="40" as="alternateBounds"/>
                    </mxGeometry>
                </mxCell>
                <mxCell id="xn0J_1aLD7OM7Lsq-6MU-358" style="shape=tableRow;horizontal=0;startSize=0;swimlaneHead=0;swimlaneBody=0;top=0;left=0;bottom=0;right=0;collapsible=0;dropTarget=0;fillColor=none;points=[[0,0.5],[1,0.5]];portConstraint=eastwest;" parent="xn0J_1aLD7OM7Lsq-6MU-329" vertex="1">
                    <mxGeometry y="190" width="600" height="40" as="geometry"/>
                </mxCell>
                <mxCell id="xn0J_1aLD7OM7Lsq-6MU-359" value="" style="shape=partialRectangle;html=1;whiteSpace=wrap;connectable=0;fillColor=none;top=0;left=0;bottom=0;right=0;overflow=hidden;" parent="xn0J_1aLD7OM7Lsq-6MU-358" vertex="1">
                    <mxGeometry width="76" height="40" as="geometry">
                        <mxRectangle width="76" height="40" as="alternateBounds"/>
                    </mxGeometry>
                </mxCell>
                <mxCell id="xn0J_1aLD7OM7Lsq-6MU-360" style="shape=partialRectangle;html=1;whiteSpace=wrap;connectable=0;fillColor=none;top=0;left=0;bottom=0;right=0;overflow=hidden;" parent="xn0J_1aLD7OM7Lsq-6MU-358" vertex="1">
                    <mxGeometry x="76" width="99" height="40" as="geometry">
                        <mxRectangle width="99" height="40" as="alternateBounds"/>
                    </mxGeometry>
                </mxCell>
                <mxCell id="xn0J_1aLD7OM7Lsq-6MU-361" style="shape=partialRectangle;html=1;whiteSpace=wrap;connectable=0;fillColor=none;top=0;left=0;bottom=0;right=0;overflow=hidden;" parent="xn0J_1aLD7OM7Lsq-6MU-358" vertex="1">
                    <mxGeometry x="175" width="125" height="40" as="geometry">
                        <mxRectangle width="125" height="40" as="alternateBounds"/>
                    </mxGeometry>
                </mxCell>
                <mxCell id="xn0J_1aLD7OM7Lsq-6MU-362" style="shape=partialRectangle;html=1;whiteSpace=wrap;connectable=0;fillColor=none;top=0;left=0;bottom=0;right=0;overflow=hidden;" parent="xn0J_1aLD7OM7Lsq-6MU-358" vertex="1">
                    <mxGeometry x="300" width="90" height="40" as="geometry">
                        <mxRectangle width="90" height="40" as="alternateBounds"/>
                    </mxGeometry>
                </mxCell>
                <mxCell id="xn0J_1aLD7OM7Lsq-6MU-363" style="shape=partialRectangle;html=1;whiteSpace=wrap;connectable=0;fillColor=none;top=0;left=0;bottom=0;right=0;overflow=hidden;" parent="xn0J_1aLD7OM7Lsq-6MU-358" vertex="1">
                    <mxGeometry x="390" width="80" height="40" as="geometry">
                        <mxRectangle width="80" height="40" as="alternateBounds"/>
                    </mxGeometry>
                </mxCell>
                <mxCell id="xn0J_1aLD7OM7Lsq-6MU-364" style="shape=partialRectangle;html=1;whiteSpace=wrap;connectable=0;fillColor=none;top=0;left=0;bottom=0;right=0;overflow=hidden;" parent="xn0J_1aLD7OM7Lsq-6MU-358" vertex="1">
                    <mxGeometry x="470" width="130" height="40" as="geometry">
                        <mxRectangle width="130" height="40" as="alternateBounds"/>
                    </mxGeometry>
                </mxCell>
                <mxCell id="xn0J_1aLD7OM7Lsq-6MU-365" style="shape=tableRow;horizontal=0;startSize=0;swimlaneHead=0;swimlaneBody=0;top=0;left=0;bottom=0;right=0;collapsible=0;dropTarget=0;fillColor=none;points=[[0,0.5],[1,0.5]];portConstraint=eastwest;" parent="xn0J_1aLD7OM7Lsq-6MU-329" vertex="1">
                    <mxGeometry y="230" width="600" height="40" as="geometry"/>
                </mxCell>
                <mxCell id="xn0J_1aLD7OM7Lsq-6MU-366" value="" style="shape=partialRectangle;html=1;whiteSpace=wrap;connectable=0;fillColor=none;top=0;left=0;bottom=0;right=0;overflow=hidden;" parent="xn0J_1aLD7OM7Lsq-6MU-365" vertex="1">
                    <mxGeometry width="76" height="40" as="geometry">
                        <mxRectangle width="76" height="40" as="alternateBounds"/>
                    </mxGeometry>
                </mxCell>
                <mxCell id="xn0J_1aLD7OM7Lsq-6MU-367" style="shape=partialRectangle;html=1;whiteSpace=wrap;connectable=0;fillColor=none;top=0;left=0;bottom=0;right=0;overflow=hidden;" parent="xn0J_1aLD7OM7Lsq-6MU-365" vertex="1">
                    <mxGeometry x="76" width="99" height="40" as="geometry">
                        <mxRectangle width="99" height="40" as="alternateBounds"/>
                    </mxGeometry>
                </mxCell>
                <mxCell id="xn0J_1aLD7OM7Lsq-6MU-368" style="shape=partialRectangle;html=1;whiteSpace=wrap;connectable=0;fillColor=none;top=0;left=0;bottom=0;right=0;overflow=hidden;" parent="xn0J_1aLD7OM7Lsq-6MU-365" vertex="1">
                    <mxGeometry x="175" width="125" height="40" as="geometry">
                        <mxRectangle width="125" height="40" as="alternateBounds"/>
                    </mxGeometry>
                </mxCell>
                <mxCell id="xn0J_1aLD7OM7Lsq-6MU-369" style="shape=partialRectangle;html=1;whiteSpace=wrap;connectable=0;fillColor=none;top=0;left=0;bottom=0;right=0;overflow=hidden;" parent="xn0J_1aLD7OM7Lsq-6MU-365" vertex="1">
                    <mxGeometry x="300" width="90" height="40" as="geometry">
                        <mxRectangle width="90" height="40" as="alternateBounds"/>
                    </mxGeometry>
                </mxCell>
                <mxCell id="xn0J_1aLD7OM7Lsq-6MU-370" style="shape=partialRectangle;html=1;whiteSpace=wrap;connectable=0;fillColor=none;top=0;left=0;bottom=0;right=0;overflow=hidden;" parent="xn0J_1aLD7OM7Lsq-6MU-365" vertex="1">
                    <mxGeometry x="390" width="80" height="40" as="geometry">
                        <mxRectangle width="80" height="40" as="alternateBounds"/>
                    </mxGeometry>
                </mxCell>
                <mxCell id="xn0J_1aLD7OM7Lsq-6MU-371" style="shape=partialRectangle;html=1;whiteSpace=wrap;connectable=0;fillColor=none;top=0;left=0;bottom=0;right=0;overflow=hidden;" parent="xn0J_1aLD7OM7Lsq-6MU-365" vertex="1">
                    <mxGeometry x="470" width="130" height="40" as="geometry">
                        <mxRectangle width="130" height="40" as="alternateBounds"/>
                    </mxGeometry>
                </mxCell>
                <mxCell id="xn0J_1aLD7OM7Lsq-6MU-373" value="&lt;b&gt;Notes&lt;/b&gt;:&lt;br&gt;&lt;ol&gt;&lt;li&gt;BackyardCost is fixed by partner&lt;/li&gt;&lt;li&gt;Why is eventId not being used?&lt;/li&gt;&lt;/ol&gt;" style="rounded=0;whiteSpace=wrap;html=1;labelBackgroundColor=none;align=left;" parent="1" vertex="1">
                    <mxGeometry x="1180" y="190" width="290" height="140" as="geometry"/>
                </mxCell>
                <mxCell id="xn0J_1aLD7OM7Lsq-6MU-378" value="Customer" style="shape=table;startSize=30;container=1;collapsible=1;childLayout=tableLayout;fixedRows=1;rowLines=0;fontStyle=1;align=center;resizeLast=1;labelBackgroundColor=none;" parent="1" vertex="1">
                    <mxGeometry x="630" y="1220" width="180" height="190" as="geometry"/>
                </mxCell>
                <mxCell id="xn0J_1aLD7OM7Lsq-6MU-379" value="" style="shape=tableRow;horizontal=0;startSize=0;swimlaneHead=0;swimlaneBody=0;fillColor=none;collapsible=0;dropTarget=0;points=[[0,0.5],[1,0.5]];portConstraint=eastwest;top=0;left=0;right=0;bottom=1;labelBackgroundColor=none;" parent="xn0J_1aLD7OM7Lsq-6MU-378" vertex="1">
                    <mxGeometry y="30" width="180" height="30" as="geometry"/>
                </mxCell>
                <mxCell id="xn0J_1aLD7OM7Lsq-6MU-380" value="PK" style="shape=partialRectangle;connectable=0;fillColor=none;top=0;left=0;bottom=0;right=0;fontStyle=1;overflow=hidden;labelBackgroundColor=none;" parent="xn0J_1aLD7OM7Lsq-6MU-379" vertex="1">
                    <mxGeometry width="30" height="30" as="geometry">
                        <mxRectangle width="30" height="30" as="alternateBounds"/>
                    </mxGeometry>
                </mxCell>
                <mxCell id="xn0J_1aLD7OM7Lsq-6MU-381" value="email_id" style="shape=partialRectangle;connectable=0;fillColor=none;top=0;left=0;bottom=0;right=0;align=left;spacingLeft=6;fontStyle=5;overflow=hidden;labelBackgroundColor=none;" parent="xn0J_1aLD7OM7Lsq-6MU-379" vertex="1">
                    <mxGeometry x="30" width="150" height="30" as="geometry">
                        <mxRectangle width="150" height="30" as="alternateBounds"/>
                    </mxGeometry>
                </mxCell>
                <mxCell id="xn0J_1aLD7OM7Lsq-6MU-382" value="" style="shape=tableRow;horizontal=0;startSize=0;swimlaneHead=0;swimlaneBody=0;fillColor=none;collapsible=0;dropTarget=0;points=[[0,0.5],[1,0.5]];portConstraint=eastwest;top=0;left=0;right=0;bottom=0;labelBackgroundColor=none;" parent="xn0J_1aLD7OM7Lsq-6MU-378" vertex="1">
                    <mxGeometry y="60" width="180" height="30" as="geometry"/>
                </mxCell>
                <mxCell id="xn0J_1aLD7OM7Lsq-6MU-383" value="" style="shape=partialRectangle;connectable=0;fillColor=none;top=0;left=0;bottom=0;right=0;editable=1;overflow=hidden;labelBackgroundColor=none;" parent="xn0J_1aLD7OM7Lsq-6MU-382" vertex="1">
                    <mxGeometry width="30" height="30" as="geometry">
                        <mxRectangle width="30" height="30" as="alternateBounds"/>
                    </mxGeometry>
                </mxCell>
                <mxCell id="xn0J_1aLD7OM7Lsq-6MU-384" value="first_name" style="shape=partialRectangle;connectable=0;fillColor=none;top=0;left=0;bottom=0;right=0;align=left;spacingLeft=6;overflow=hidden;labelBackgroundColor=none;" parent="xn0J_1aLD7OM7Lsq-6MU-382" vertex="1">
                    <mxGeometry x="30" width="150" height="30" as="geometry">
                        <mxRectangle width="150" height="30" as="alternateBounds"/>
                    </mxGeometry>
                </mxCell>
                <mxCell id="xn0J_1aLD7OM7Lsq-6MU-385" value="" style="shape=tableRow;horizontal=0;startSize=0;swimlaneHead=0;swimlaneBody=0;fillColor=none;collapsible=0;dropTarget=0;points=[[0,0.5],[1,0.5]];portConstraint=eastwest;top=0;left=0;right=0;bottom=0;labelBackgroundColor=none;" parent="xn0J_1aLD7OM7Lsq-6MU-378" vertex="1">
                    <mxGeometry y="90" width="180" height="30" as="geometry"/>
                </mxCell>
                <mxCell id="xn0J_1aLD7OM7Lsq-6MU-386" value="" style="shape=partialRectangle;connectable=0;fillColor=none;top=0;left=0;bottom=0;right=0;editable=1;overflow=hidden;labelBackgroundColor=none;" parent="xn0J_1aLD7OM7Lsq-6MU-385" vertex="1">
                    <mxGeometry width="30" height="30" as="geometry">
                        <mxRectangle width="30" height="30" as="alternateBounds"/>
                    </mxGeometry>
                </mxCell>
                <mxCell id="xn0J_1aLD7OM7Lsq-6MU-387" value="last_name" style="shape=partialRectangle;connectable=0;fillColor=none;top=0;left=0;bottom=0;right=0;align=left;spacingLeft=6;overflow=hidden;labelBackgroundColor=none;" parent="xn0J_1aLD7OM7Lsq-6MU-385" vertex="1">
                    <mxGeometry x="30" width="150" height="30" as="geometry">
                        <mxRectangle width="150" height="30" as="alternateBounds"/>
                    </mxGeometry>
                </mxCell>
                <mxCell id="xn0J_1aLD7OM7Lsq-6MU-388" value="" style="shape=tableRow;horizontal=0;startSize=0;swimlaneHead=0;swimlaneBody=0;fillColor=none;collapsible=0;dropTarget=0;points=[[0,0.5],[1,0.5]];portConstraint=eastwest;top=0;left=0;right=0;bottom=0;labelBackgroundColor=none;" parent="xn0J_1aLD7OM7Lsq-6MU-378" vertex="1">
                    <mxGeometry y="120" width="180" height="30" as="geometry"/>
                </mxCell>
                <mxCell id="xn0J_1aLD7OM7Lsq-6MU-389" value="" style="shape=partialRectangle;connectable=0;fillColor=none;top=0;left=0;bottom=0;right=0;editable=1;overflow=hidden;labelBackgroundColor=none;" parent="xn0J_1aLD7OM7Lsq-6MU-388" vertex="1">
                    <mxGeometry width="30" height="30" as="geometry">
                        <mxRectangle width="30" height="30" as="alternateBounds"/>
                    </mxGeometry>
                </mxCell>
                <mxCell id="xn0J_1aLD7OM7Lsq-6MU-390" value="password" style="shape=partialRectangle;connectable=0;fillColor=none;top=0;left=0;bottom=0;right=0;align=left;spacingLeft=6;overflow=hidden;labelBackgroundColor=none;" parent="xn0J_1aLD7OM7Lsq-6MU-388" vertex="1">
                    <mxGeometry x="30" width="150" height="30" as="geometry">
                        <mxRectangle width="150" height="30" as="alternateBounds"/>
                    </mxGeometry>
                </mxCell>
                <mxCell id="xn0J_1aLD7OM7Lsq-6MU-391" style="shape=tableRow;horizontal=0;startSize=0;swimlaneHead=0;swimlaneBody=0;fillColor=none;collapsible=0;dropTarget=0;points=[[0,0.5],[1,0.5]];portConstraint=eastwest;top=0;left=0;right=0;bottom=0;labelBackgroundColor=none;" parent="xn0J_1aLD7OM7Lsq-6MU-378" vertex="1">
                    <mxGeometry y="150" width="180" height="30" as="geometry"/>
                </mxCell>
                <mxCell id="xn0J_1aLD7OM7Lsq-6MU-392" style="shape=partialRectangle;connectable=0;fillColor=none;top=0;left=0;bottom=0;right=0;editable=1;overflow=hidden;labelBackgroundColor=none;" parent="xn0J_1aLD7OM7Lsq-6MU-391" vertex="1">
                    <mxGeometry width="30" height="30" as="geometry">
                        <mxRectangle width="30" height="30" as="alternateBounds"/>
                    </mxGeometry>
                </mxCell>
                <mxCell id="xn0J_1aLD7OM7Lsq-6MU-393" value="" style="shape=partialRectangle;connectable=0;fillColor=none;top=0;left=0;bottom=0;right=0;align=left;spacingLeft=6;overflow=hidden;labelBackgroundColor=none;" parent="xn0J_1aLD7OM7Lsq-6MU-391" vertex="1">
                    <mxGeometry x="30" width="150" height="30" as="geometry">
                        <mxRectangle width="150" height="30" as="alternateBounds"/>
                    </mxGeometry>
                </mxCell>
                <mxCell id="xn0J_1aLD7OM7Lsq-6MU-394" value="Event" style="shape=table;startSize=30;container=1;collapsible=1;childLayout=tableLayout;fixedRows=1;rowLines=0;fontStyle=1;align=center;resizeLast=1;labelBackgroundColor=none;" parent="1" vertex="1">
                    <mxGeometry x="950" y="1220" width="180" height="220" as="geometry"/>
                </mxCell>
                <mxCell id="xn0J_1aLD7OM7Lsq-6MU-395" value="" style="shape=tableRow;horizontal=0;startSize=0;swimlaneHead=0;swimlaneBody=0;fillColor=none;collapsible=0;dropTarget=0;points=[[0,0.5],[1,0.5]];portConstraint=eastwest;top=0;left=0;right=0;bottom=1;labelBackgroundColor=none;" parent="xn0J_1aLD7OM7Lsq-6MU-394" vertex="1">
                    <mxGeometry y="30" width="180" height="30" as="geometry"/>
                </mxCell>
                <mxCell id="xn0J_1aLD7OM7Lsq-6MU-396" value="PK" style="shape=partialRectangle;connectable=0;fillColor=none;top=0;left=0;bottom=0;right=0;fontStyle=1;overflow=hidden;labelBackgroundColor=none;" parent="xn0J_1aLD7OM7Lsq-6MU-395" vertex="1">
                    <mxGeometry width="30" height="30" as="geometry">
                        <mxRectangle width="30" height="30" as="alternateBounds"/>
                    </mxGeometry>
                </mxCell>
                <mxCell id="xn0J_1aLD7OM7Lsq-6MU-397" value="event_id" style="shape=partialRectangle;connectable=0;fillColor=none;top=0;left=0;bottom=0;right=0;align=left;spacingLeft=6;fontStyle=5;overflow=hidden;labelBackgroundColor=none;" parent="xn0J_1aLD7OM7Lsq-6MU-395" vertex="1">
                    <mxGeometry x="30" width="150" height="30" as="geometry">
                        <mxRectangle width="150" height="30" as="alternateBounds"/>
                    </mxGeometry>
                </mxCell>
                <mxCell id="xn0J_1aLD7OM7Lsq-6MU-398" value="" style="shape=tableRow;horizontal=0;startSize=0;swimlaneHead=0;swimlaneBody=0;fillColor=none;collapsible=0;dropTarget=0;points=[[0,0.5],[1,0.5]];portConstraint=eastwest;top=0;left=0;right=0;bottom=0;labelBackgroundColor=none;" parent="xn0J_1aLD7OM7Lsq-6MU-394" vertex="1">
                    <mxGeometry y="60" width="180" height="30" as="geometry"/>
                </mxCell>
                <mxCell id="xn0J_1aLD7OM7Lsq-6MU-399" value="" style="shape=partialRectangle;connectable=0;fillColor=none;top=0;left=0;bottom=0;right=0;editable=1;overflow=hidden;labelBackgroundColor=none;" parent="xn0J_1aLD7OM7Lsq-6MU-398" vertex="1">
                    <mxGeometry width="30" height="30" as="geometry">
                        <mxRectangle width="30" height="30" as="alternateBounds"/>
                    </mxGeometry>
                </mxCell>
                <mxCell id="xn0J_1aLD7OM7Lsq-6MU-400" value="event_name" style="shape=partialRectangle;connectable=0;fillColor=none;top=0;left=0;bottom=0;right=0;align=left;spacingLeft=6;overflow=hidden;labelBackgroundColor=none;" parent="xn0J_1aLD7OM7Lsq-6MU-398" vertex="1">
                    <mxGeometry x="30" width="150" height="30" as="geometry">
                        <mxRectangle width="150" height="30" as="alternateBounds"/>
                    </mxGeometry>
                </mxCell>
                <mxCell id="xn0J_1aLD7OM7Lsq-6MU-401" value="" style="shape=tableRow;horizontal=0;startSize=0;swimlaneHead=0;swimlaneBody=0;fillColor=none;collapsible=0;dropTarget=0;points=[[0,0.5],[1,0.5]];portConstraint=eastwest;top=0;left=0;right=0;bottom=0;labelBackgroundColor=none;" parent="xn0J_1aLD7OM7Lsq-6MU-394" vertex="1">
                    <mxGeometry y="90" width="180" height="30" as="geometry"/>
                </mxCell>
                <mxCell id="xn0J_1aLD7OM7Lsq-6MU-402" value="" style="shape=partialRectangle;connectable=0;fillColor=none;top=0;left=0;bottom=0;right=0;editable=1;overflow=hidden;labelBackgroundColor=none;" parent="xn0J_1aLD7OM7Lsq-6MU-401" vertex="1">
                    <mxGeometry width="30" height="30" as="geometry">
                        <mxRectangle width="30" height="30" as="alternateBounds"/>
                    </mxGeometry>
                </mxCell>
                <mxCell id="xn0J_1aLD7OM7Lsq-6MU-403" value="event_description" style="shape=partialRectangle;connectable=0;fillColor=none;top=0;left=0;bottom=0;right=0;align=left;spacingLeft=6;overflow=hidden;labelBackgroundColor=none;" parent="xn0J_1aLD7OM7Lsq-6MU-401" vertex="1">
                    <mxGeometry x="30" width="150" height="30" as="geometry">
                        <mxRectangle width="150" height="30" as="alternateBounds"/>
                    </mxGeometry>
                </mxCell>
                <mxCell id="xn0J_1aLD7OM7Lsq-6MU-404" value="" style="shape=tableRow;horizontal=0;startSize=0;swimlaneHead=0;swimlaneBody=0;fillColor=none;collapsible=0;dropTarget=0;points=[[0,0.5],[1,0.5]];portConstraint=eastwest;top=0;left=0;right=0;bottom=0;labelBackgroundColor=none;" parent="xn0J_1aLD7OM7Lsq-6MU-394" vertex="1">
                    <mxGeometry y="120" width="180" height="30" as="geometry"/>
                </mxCell>
                <mxCell id="xn0J_1aLD7OM7Lsq-6MU-405" value="" style="shape=partialRectangle;connectable=0;fillColor=none;top=0;left=0;bottom=0;right=0;editable=1;overflow=hidden;labelBackgroundColor=none;" parent="xn0J_1aLD7OM7Lsq-6MU-404" vertex="1">
                    <mxGeometry width="30" height="30" as="geometry">
                        <mxRectangle width="30" height="30" as="alternateBounds"/>
                    </mxGeometry>
                </mxCell>
                <mxCell id="xn0J_1aLD7OM7Lsq-6MU-406" value="event_date" style="shape=partialRectangle;connectable=0;fillColor=none;top=0;left=0;bottom=0;right=0;align=left;spacingLeft=6;overflow=hidden;labelBackgroundColor=none;" parent="xn0J_1aLD7OM7Lsq-6MU-404" vertex="1">
                    <mxGeometry x="30" width="150" height="30" as="geometry">
                        <mxRectangle width="150" height="30" as="alternateBounds"/>
                    </mxGeometry>
                </mxCell>
                <mxCell id="xn0J_1aLD7OM7Lsq-6MU-407" style="shape=tableRow;horizontal=0;startSize=0;swimlaneHead=0;swimlaneBody=0;fillColor=none;collapsible=0;dropTarget=0;points=[[0,0.5],[1,0.5]];portConstraint=eastwest;top=0;left=0;right=0;bottom=0;labelBackgroundColor=none;" parent="xn0J_1aLD7OM7Lsq-6MU-394" vertex="1">
                    <mxGeometry y="150" width="180" height="30" as="geometry"/>
                </mxCell>
                <mxCell id="xn0J_1aLD7OM7Lsq-6MU-408" value="FK" style="shape=partialRectangle;connectable=0;fillColor=none;top=0;left=0;bottom=0;right=0;editable=1;overflow=hidden;labelBackgroundColor=none;" parent="xn0J_1aLD7OM7Lsq-6MU-407" vertex="1">
                    <mxGeometry width="30" height="30" as="geometry">
                        <mxRectangle width="30" height="30" as="alternateBounds"/>
                    </mxGeometry>
                </mxCell>
                <mxCell id="xn0J_1aLD7OM7Lsq-6MU-409" value="email_id" style="shape=partialRectangle;connectable=0;fillColor=none;top=0;left=0;bottom=0;right=0;align=left;spacingLeft=6;overflow=hidden;labelBackgroundColor=none;" parent="xn0J_1aLD7OM7Lsq-6MU-407" vertex="1">
                    <mxGeometry x="30" width="150" height="30" as="geometry">
                        <mxRectangle width="150" height="30" as="alternateBounds"/>
                    </mxGeometry>
                </mxCell>
                <mxCell id="xn0J_1aLD7OM7Lsq-6MU-410" style="shape=tableRow;horizontal=0;startSize=0;swimlaneHead=0;swimlaneBody=0;fillColor=none;collapsible=0;dropTarget=0;points=[[0,0.5],[1,0.5]];portConstraint=eastwest;top=0;left=0;right=0;bottom=0;labelBackgroundColor=none;" parent="xn0J_1aLD7OM7Lsq-6MU-394" vertex="1">
                    <mxGeometry y="180" width="180" height="30" as="geometry"/>
                </mxCell>
                <mxCell id="xn0J_1aLD7OM7Lsq-6MU-411" value="FK" style="shape=partialRectangle;connectable=0;fillColor=none;top=0;left=0;bottom=0;right=0;editable=1;overflow=hidden;labelBackgroundColor=none;" parent="xn0J_1aLD7OM7Lsq-6MU-410" vertex="1">
                    <mxGeometry width="30" height="30" as="geometry">
                        <mxRectangle width="30" height="30" as="alternateBounds"/>
                    </mxGeometry>
                </mxCell>
                <mxCell id="xn0J_1aLD7OM7Lsq-6MU-412" value="backyard_id" style="shape=partialRectangle;connectable=0;fillColor=none;top=0;left=0;bottom=0;right=0;align=left;spacingLeft=6;overflow=hidden;labelBackgroundColor=none;" parent="xn0J_1aLD7OM7Lsq-6MU-410" vertex="1">
                    <mxGeometry x="30" width="150" height="30" as="geometry">
                        <mxRectangle width="150" height="30" as="alternateBounds"/>
                    </mxGeometry>
                </mxCell>
                <mxCell id="xn0J_1aLD7OM7Lsq-6MU-416" style="edgeStyle=orthogonalEdgeStyle;rounded=0;orthogonalLoop=1;jettySize=auto;html=1;entryX=0;entryY=0.5;entryDx=0;entryDy=0;startArrow=none;" parent="1" source="xn0J_1aLD7OM7Lsq-6MU-417" target="xn0J_1aLD7OM7Lsq-6MU-407" edge="1">
                    <mxGeometry relative="1" as="geometry"/>
                </mxCell>
                <mxCell id="xn0J_1aLD7OM7Lsq-6MU-417" value="OneToMany" style="text;html=1;align=center;verticalAlign=middle;resizable=0;points=[];autosize=1;strokeColor=none;fillColor=none;" parent="1" vertex="1">
                    <mxGeometry x="850" y="1255" width="80" height="20" as="geometry"/>
                </mxCell>
                <mxCell id="xn0J_1aLD7OM7Lsq-6MU-418" value="" style="edgeStyle=orthogonalEdgeStyle;rounded=0;orthogonalLoop=1;jettySize=auto;html=1;entryX=0;entryY=0.5;entryDx=0;entryDy=0;endArrow=none;" parent="1" source="xn0J_1aLD7OM7Lsq-6MU-379" target="xn0J_1aLD7OM7Lsq-6MU-417" edge="1">
                    <mxGeometry relative="1" as="geometry">
                        <mxPoint x="810" y="1265" as="sourcePoint"/>
                        <mxPoint x="950" y="1385" as="targetPoint"/>
                    </mxGeometry>
                </mxCell>
                <mxCell id="xn0J_1aLD7OM7Lsq-6MU-419" value="Partner" style="shape=table;startSize=30;container=1;collapsible=1;childLayout=tableLayout;fixedRows=1;rowLines=0;fontStyle=1;align=center;resizeLast=1;labelBackgroundColor=none;" parent="1" vertex="1">
                    <mxGeometry x="320" y="1480" width="180" height="190" as="geometry"/>
                </mxCell>
                <mxCell id="xn0J_1aLD7OM7Lsq-6MU-420" value="" style="shape=tableRow;horizontal=0;startSize=0;swimlaneHead=0;swimlaneBody=0;fillColor=none;collapsible=0;dropTarget=0;points=[[0,0.5],[1,0.5]];portConstraint=eastwest;top=0;left=0;right=0;bottom=1;labelBackgroundColor=none;" parent="xn0J_1aLD7OM7Lsq-6MU-419" vertex="1">
                    <mxGeometry y="30" width="180" height="30" as="geometry"/>
                </mxCell>
                <mxCell id="xn0J_1aLD7OM7Lsq-6MU-421" value="PK" style="shape=partialRectangle;connectable=0;fillColor=none;top=0;left=0;bottom=0;right=0;fontStyle=1;overflow=hidden;labelBackgroundColor=none;" parent="xn0J_1aLD7OM7Lsq-6MU-420" vertex="1">
                    <mxGeometry width="30" height="30" as="geometry">
                        <mxRectangle width="30" height="30" as="alternateBounds"/>
                    </mxGeometry>
                </mxCell>
                <mxCell id="xn0J_1aLD7OM7Lsq-6MU-422" value="email_id" style="shape=partialRectangle;connectable=0;fillColor=none;top=0;left=0;bottom=0;right=0;align=left;spacingLeft=6;fontStyle=5;overflow=hidden;labelBackgroundColor=none;" parent="xn0J_1aLD7OM7Lsq-6MU-420" vertex="1">
                    <mxGeometry x="30" width="150" height="30" as="geometry">
                        <mxRectangle width="150" height="30" as="alternateBounds"/>
                    </mxGeometry>
                </mxCell>
                <mxCell id="xn0J_1aLD7OM7Lsq-6MU-423" value="" style="shape=tableRow;horizontal=0;startSize=0;swimlaneHead=0;swimlaneBody=0;fillColor=none;collapsible=0;dropTarget=0;points=[[0,0.5],[1,0.5]];portConstraint=eastwest;top=0;left=0;right=0;bottom=0;labelBackgroundColor=none;" parent="xn0J_1aLD7OM7Lsq-6MU-419" vertex="1">
                    <mxGeometry y="60" width="180" height="30" as="geometry"/>
                </mxCell>
                <mxCell id="xn0J_1aLD7OM7Lsq-6MU-424" value="" style="shape=partialRectangle;connectable=0;fillColor=none;top=0;left=0;bottom=0;right=0;editable=1;overflow=hidden;labelBackgroundColor=none;" parent="xn0J_1aLD7OM7Lsq-6MU-423" vertex="1">
                    <mxGeometry width="30" height="30" as="geometry">
                        <mxRectangle width="30" height="30" as="alternateBounds"/>
                    </mxGeometry>
                </mxCell>
                <mxCell id="xn0J_1aLD7OM7Lsq-6MU-425" value="first_name" style="shape=partialRectangle;connectable=0;fillColor=none;top=0;left=0;bottom=0;right=0;align=left;spacingLeft=6;overflow=hidden;labelBackgroundColor=none;" parent="xn0J_1aLD7OM7Lsq-6MU-423" vertex="1">
                    <mxGeometry x="30" width="150" height="30" as="geometry">
                        <mxRectangle width="150" height="30" as="alternateBounds"/>
                    </mxGeometry>
                </mxCell>
                <mxCell id="xn0J_1aLD7OM7Lsq-6MU-426" value="" style="shape=tableRow;horizontal=0;startSize=0;swimlaneHead=0;swimlaneBody=0;fillColor=none;collapsible=0;dropTarget=0;points=[[0,0.5],[1,0.5]];portConstraint=eastwest;top=0;left=0;right=0;bottom=0;labelBackgroundColor=none;" parent="xn0J_1aLD7OM7Lsq-6MU-419" vertex="1">
                    <mxGeometry y="90" width="180" height="30" as="geometry"/>
                </mxCell>
                <mxCell id="xn0J_1aLD7OM7Lsq-6MU-427" value="" style="shape=partialRectangle;connectable=0;fillColor=none;top=0;left=0;bottom=0;right=0;editable=1;overflow=hidden;labelBackgroundColor=none;" parent="xn0J_1aLD7OM7Lsq-6MU-426" vertex="1">
                    <mxGeometry width="30" height="30" as="geometry">
                        <mxRectangle width="30" height="30" as="alternateBounds"/>
                    </mxGeometry>
                </mxCell>
                <mxCell id="xn0J_1aLD7OM7Lsq-6MU-428" value="last_name" style="shape=partialRectangle;connectable=0;fillColor=none;top=0;left=0;bottom=0;right=0;align=left;spacingLeft=6;overflow=hidden;labelBackgroundColor=none;" parent="xn0J_1aLD7OM7Lsq-6MU-426" vertex="1">
                    <mxGeometry x="30" width="150" height="30" as="geometry">
                        <mxRectangle width="150" height="30" as="alternateBounds"/>
                    </mxGeometry>
                </mxCell>
                <mxCell id="xn0J_1aLD7OM7Lsq-6MU-429" value="" style="shape=tableRow;horizontal=0;startSize=0;swimlaneHead=0;swimlaneBody=0;fillColor=none;collapsible=0;dropTarget=0;points=[[0,0.5],[1,0.5]];portConstraint=eastwest;top=0;left=0;right=0;bottom=0;labelBackgroundColor=none;" parent="xn0J_1aLD7OM7Lsq-6MU-419" vertex="1">
                    <mxGeometry y="120" width="180" height="30" as="geometry"/>
                </mxCell>
                <mxCell id="xn0J_1aLD7OM7Lsq-6MU-430" value="" style="shape=partialRectangle;connectable=0;fillColor=none;top=0;left=0;bottom=0;right=0;editable=1;overflow=hidden;labelBackgroundColor=none;" parent="xn0J_1aLD7OM7Lsq-6MU-429" vertex="1">
                    <mxGeometry width="30" height="30" as="geometry">
                        <mxRectangle width="30" height="30" as="alternateBounds"/>
                    </mxGeometry>
                </mxCell>
                <mxCell id="xn0J_1aLD7OM7Lsq-6MU-431" value="password" style="shape=partialRectangle;connectable=0;fillColor=none;top=0;left=0;bottom=0;right=0;align=left;spacingLeft=6;overflow=hidden;labelBackgroundColor=none;" parent="xn0J_1aLD7OM7Lsq-6MU-429" vertex="1">
                    <mxGeometry x="30" width="150" height="30" as="geometry">
                        <mxRectangle width="150" height="30" as="alternateBounds"/>
                    </mxGeometry>
                </mxCell>
                <mxCell id="xn0J_1aLD7OM7Lsq-6MU-432" style="shape=tableRow;horizontal=0;startSize=0;swimlaneHead=0;swimlaneBody=0;fillColor=none;collapsible=0;dropTarget=0;points=[[0,0.5],[1,0.5]];portConstraint=eastwest;top=0;left=0;right=0;bottom=0;labelBackgroundColor=none;" parent="xn0J_1aLD7OM7Lsq-6MU-419" vertex="1">
                    <mxGeometry y="150" width="180" height="30" as="geometry"/>
                </mxCell>
                <mxCell id="xn0J_1aLD7OM7Lsq-6MU-433" style="shape=partialRectangle;connectable=0;fillColor=none;top=0;left=0;bottom=0;right=0;editable=1;overflow=hidden;labelBackgroundColor=none;" parent="xn0J_1aLD7OM7Lsq-6MU-432" vertex="1">
                    <mxGeometry width="30" height="30" as="geometry">
                        <mxRectangle width="30" height="30" as="alternateBounds"/>
                    </mxGeometry>
                </mxCell>
                <mxCell id="xn0J_1aLD7OM7Lsq-6MU-434" value="" style="shape=partialRectangle;connectable=0;fillColor=none;top=0;left=0;bottom=0;right=0;align=left;spacingLeft=6;overflow=hidden;labelBackgroundColor=none;" parent="xn0J_1aLD7OM7Lsq-6MU-432" vertex="1">
                    <mxGeometry x="30" width="150" height="30" as="geometry">
                        <mxRectangle width="150" height="30" as="alternateBounds"/>
                    </mxGeometry>
                </mxCell>
                <mxCell id="xn0J_1aLD7OM7Lsq-6MU-435" value="Backyard" style="shape=table;startSize=30;container=1;collapsible=1;childLayout=tableLayout;fixedRows=1;rowLines=0;fontStyle=1;align=center;resizeLast=1;labelBackgroundColor=none;" parent="1" vertex="1">
                    <mxGeometry x="630" y="1480" width="180" height="220" as="geometry"/>
                </mxCell>
                <mxCell id="xn0J_1aLD7OM7Lsq-6MU-436" value="" style="shape=tableRow;horizontal=0;startSize=0;swimlaneHead=0;swimlaneBody=0;fillColor=none;collapsible=0;dropTarget=0;points=[[0,0.5],[1,0.5]];portConstraint=eastwest;top=0;left=0;right=0;bottom=1;labelBackgroundColor=none;" parent="xn0J_1aLD7OM7Lsq-6MU-435" vertex="1">
                    <mxGeometry y="30" width="180" height="30" as="geometry"/>
                </mxCell>
                <mxCell id="xn0J_1aLD7OM7Lsq-6MU-437" value="PK" style="shape=partialRectangle;connectable=0;fillColor=none;top=0;left=0;bottom=0;right=0;fontStyle=1;overflow=hidden;labelBackgroundColor=none;" parent="xn0J_1aLD7OM7Lsq-6MU-436" vertex="1">
                    <mxGeometry width="30" height="30" as="geometry">
                        <mxRectangle width="30" height="30" as="alternateBounds"/>
                    </mxGeometry>
                </mxCell>
                <mxCell id="xn0J_1aLD7OM7Lsq-6MU-438" value="backyard_id" style="shape=partialRectangle;connectable=0;fillColor=none;top=0;left=0;bottom=0;right=0;align=left;spacingLeft=6;fontStyle=5;overflow=hidden;labelBackgroundColor=none;" parent="xn0J_1aLD7OM7Lsq-6MU-436" vertex="1">
                    <mxGeometry x="30" width="150" height="30" as="geometry">
                        <mxRectangle width="150" height="30" as="alternateBounds"/>
                    </mxGeometry>
                </mxCell>
                <mxCell id="xn0J_1aLD7OM7Lsq-6MU-439" value="" style="shape=tableRow;horizontal=0;startSize=0;swimlaneHead=0;swimlaneBody=0;fillColor=none;collapsible=0;dropTarget=0;points=[[0,0.5],[1,0.5]];portConstraint=eastwest;top=0;left=0;right=0;bottom=0;labelBackgroundColor=none;" parent="xn0J_1aLD7OM7Lsq-6MU-435" vertex="1">
                    <mxGeometry y="60" width="180" height="30" as="geometry"/>
                </mxCell>
                <mxCell id="xn0J_1aLD7OM7Lsq-6MU-440" value="" style="shape=partialRectangle;connectable=0;fillColor=none;top=0;left=0;bottom=0;right=0;editable=1;overflow=hidden;labelBackgroundColor=none;" parent="xn0J_1aLD7OM7Lsq-6MU-439" vertex="1">
                    <mxGeometry width="30" height="30" as="geometry">
                        <mxRectangle width="30" height="30" as="alternateBounds"/>
                    </mxGeometry>
                </mxCell>
                <mxCell id="xn0J_1aLD7OM7Lsq-6MU-441" value="backyard_name" style="shape=partialRectangle;connectable=0;fillColor=none;top=0;left=0;bottom=0;right=0;align=left;spacingLeft=6;overflow=hidden;labelBackgroundColor=none;" parent="xn0J_1aLD7OM7Lsq-6MU-439" vertex="1">
                    <mxGeometry x="30" width="150" height="30" as="geometry">
                        <mxRectangle width="150" height="30" as="alternateBounds"/>
                    </mxGeometry>
                </mxCell>
                <mxCell id="xn0J_1aLD7OM7Lsq-6MU-442" value="" style="shape=tableRow;horizontal=0;startSize=0;swimlaneHead=0;swimlaneBody=0;fillColor=none;collapsible=0;dropTarget=0;points=[[0,0.5],[1,0.5]];portConstraint=eastwest;top=0;left=0;right=0;bottom=0;labelBackgroundColor=none;" parent="xn0J_1aLD7OM7Lsq-6MU-435" vertex="1">
                    <mxGeometry y="90" width="180" height="30" as="geometry"/>
                </mxCell>
                <mxCell id="xn0J_1aLD7OM7Lsq-6MU-443" value="" style="shape=partialRectangle;connectable=0;fillColor=none;top=0;left=0;bottom=0;right=0;editable=1;overflow=hidden;labelBackgroundColor=none;" parent="xn0J_1aLD7OM7Lsq-6MU-442" vertex="1">
                    <mxGeometry width="30" height="30" as="geometry">
                        <mxRectangle width="30" height="30" as="alternateBounds"/>
                    </mxGeometry>
                </mxCell>
                <mxCell id="xn0J_1aLD7OM7Lsq-6MU-444" value="backyard_description" style="shape=partialRectangle;connectable=0;fillColor=none;top=0;left=0;bottom=0;right=0;align=left;spacingLeft=6;overflow=hidden;labelBackgroundColor=none;" parent="xn0J_1aLD7OM7Lsq-6MU-442" vertex="1">
                    <mxGeometry x="30" width="150" height="30" as="geometry">
                        <mxRectangle width="150" height="30" as="alternateBounds"/>
                    </mxGeometry>
                </mxCell>
                <mxCell id="xn0J_1aLD7OM7Lsq-6MU-445" value="" style="shape=tableRow;horizontal=0;startSize=0;swimlaneHead=0;swimlaneBody=0;fillColor=none;collapsible=0;dropTarget=0;points=[[0,0.5],[1,0.5]];portConstraint=eastwest;top=0;left=0;right=0;bottom=0;labelBackgroundColor=none;" parent="xn0J_1aLD7OM7Lsq-6MU-435" vertex="1">
                    <mxGeometry y="120" width="180" height="30" as="geometry"/>
                </mxCell>
                <mxCell id="xn0J_1aLD7OM7Lsq-6MU-446" value="" style="shape=partialRectangle;connectable=0;fillColor=none;top=0;left=0;bottom=0;right=0;editable=1;overflow=hidden;labelBackgroundColor=none;" parent="xn0J_1aLD7OM7Lsq-6MU-445" vertex="1">
                    <mxGeometry width="30" height="30" as="geometry">
                        <mxRectangle width="30" height="30" as="alternateBounds"/>
                    </mxGeometry>
                </mxCell>
                <mxCell id="xn0J_1aLD7OM7Lsq-6MU-447" value="backyard_city" style="shape=partialRectangle;connectable=0;fillColor=none;top=0;left=0;bottom=0;right=0;align=left;spacingLeft=6;overflow=hidden;labelBackgroundColor=none;" parent="xn0J_1aLD7OM7Lsq-6MU-445" vertex="1">
                    <mxGeometry x="30" width="150" height="30" as="geometry">
                        <mxRectangle width="150" height="30" as="alternateBounds"/>
                    </mxGeometry>
                </mxCell>
                <mxCell id="xn0J_1aLD7OM7Lsq-6MU-448" style="shape=tableRow;horizontal=0;startSize=0;swimlaneHead=0;swimlaneBody=0;fillColor=none;collapsible=0;dropTarget=0;points=[[0,0.5],[1,0.5]];portConstraint=eastwest;top=0;left=0;right=0;bottom=0;labelBackgroundColor=none;" parent="xn0J_1aLD7OM7Lsq-6MU-435" vertex="1">
                    <mxGeometry y="150" width="180" height="30" as="geometry"/>
                </mxCell>
                <mxCell id="xn0J_1aLD7OM7Lsq-6MU-449" style="shape=partialRectangle;connectable=0;fillColor=none;top=0;left=0;bottom=0;right=0;editable=1;overflow=hidden;labelBackgroundColor=none;" parent="xn0J_1aLD7OM7Lsq-6MU-448" vertex="1">
                    <mxGeometry width="30" height="30" as="geometry">
                        <mxRectangle width="30" height="30" as="alternateBounds"/>
                    </mxGeometry>
                </mxCell>
                <mxCell id="xn0J_1aLD7OM7Lsq-6MU-450" value="backyard_cost" style="shape=partialRectangle;connectable=0;fillColor=none;top=0;left=0;bottom=0;right=0;align=left;spacingLeft=6;overflow=hidden;labelBackgroundColor=none;" parent="xn0J_1aLD7OM7Lsq-6MU-448" vertex="1">
                    <mxGeometry x="30" width="150" height="30" as="geometry">
                        <mxRectangle width="150" height="30" as="alternateBounds"/>
                    </mxGeometry>
                </mxCell>
                <mxCell id="xn0J_1aLD7OM7Lsq-6MU-451" style="shape=tableRow;horizontal=0;startSize=0;swimlaneHead=0;swimlaneBody=0;fillColor=none;collapsible=0;dropTarget=0;points=[[0,0.5],[1,0.5]];portConstraint=eastwest;top=0;left=0;right=0;bottom=0;labelBackgroundColor=none;" parent="xn0J_1aLD7OM7Lsq-6MU-435" vertex="1">
                    <mxGeometry y="180" width="180" height="30" as="geometry"/>
                </mxCell>
                <mxCell id="xn0J_1aLD7OM7Lsq-6MU-452" value="FK" style="shape=partialRectangle;connectable=0;fillColor=none;top=0;left=0;bottom=0;right=0;editable=1;overflow=hidden;labelBackgroundColor=none;" parent="xn0J_1aLD7OM7Lsq-6MU-451" vertex="1">
                    <mxGeometry width="30" height="30" as="geometry">
                        <mxRectangle width="30" height="30" as="alternateBounds"/>
                    </mxGeometry>
                </mxCell>
                <mxCell id="xn0J_1aLD7OM7Lsq-6MU-453" value="email_id" style="shape=partialRectangle;connectable=0;fillColor=none;top=0;left=0;bottom=0;right=0;align=left;spacingLeft=6;overflow=hidden;labelBackgroundColor=none;" parent="xn0J_1aLD7OM7Lsq-6MU-451" vertex="1">
                    <mxGeometry x="30" width="150" height="30" as="geometry">
                        <mxRectangle width="150" height="30" as="alternateBounds"/>
                    </mxGeometry>
                </mxCell>
                <mxCell id="xn0J_1aLD7OM7Lsq-6MU-454" style="edgeStyle=orthogonalEdgeStyle;rounded=0;orthogonalLoop=1;jettySize=auto;html=1;entryX=0;entryY=0.5;entryDx=0;entryDy=0;startArrow=none;" parent="1" source="xn0J_1aLD7OM7Lsq-6MU-455" target="xn0J_1aLD7OM7Lsq-6MU-451" edge="1">
                    <mxGeometry relative="1" as="geometry"/>
                </mxCell>
                <mxCell id="xn0J_1aLD7OM7Lsq-6MU-455" value="OneToMany" style="text;html=1;align=center;verticalAlign=middle;resizable=0;points=[];autosize=1;strokeColor=none;fillColor=none;" parent="1" vertex="1">
                    <mxGeometry x="520" y="1515" width="80" height="20" as="geometry"/>
                </mxCell>
                <mxCell id="xn0J_1aLD7OM7Lsq-6MU-456" value="" style="edgeStyle=orthogonalEdgeStyle;rounded=0;orthogonalLoop=1;jettySize=auto;html=1;entryX=0;entryY=0.5;entryDx=0;entryDy=0;endArrow=none;" parent="1" source="xn0J_1aLD7OM7Lsq-6MU-420" target="xn0J_1aLD7OM7Lsq-6MU-455" edge="1">
                    <mxGeometry relative="1" as="geometry">
                        <mxPoint x="500" y="1525" as="sourcePoint"/>
                        <mxPoint x="640" y="1675" as="targetPoint"/>
                    </mxGeometry>
                </mxCell>
                <mxCell id="xn0J_1aLD7OM7Lsq-6MU-457" style="edgeStyle=orthogonalEdgeStyle;rounded=0;orthogonalLoop=1;jettySize=auto;html=1;startArrow=none;" parent="1" source="xn0J_1aLD7OM7Lsq-6MU-458" target="xn0J_1aLD7OM7Lsq-6MU-410" edge="1">
                    <mxGeometry relative="1" as="geometry">
                        <Array as="points">
                            <mxPoint x="890" y="1415"/>
                        </Array>
                    </mxGeometry>
                </mxCell>
                <mxCell id="xn0J_1aLD7OM7Lsq-6MU-458" value="OneToMany" style="text;html=1;align=center;verticalAlign=middle;resizable=0;points=[];autosize=1;strokeColor=none;fillColor=none;" parent="1" vertex="1">
                    <mxGeometry x="850" y="1515" width="80" height="20" as="geometry"/>
                </mxCell>
                <mxCell id="xn0J_1aLD7OM7Lsq-6MU-459" value="" style="edgeStyle=orthogonalEdgeStyle;rounded=0;orthogonalLoop=1;jettySize=auto;html=1;endArrow=none;" parent="1" source="xn0J_1aLD7OM7Lsq-6MU-436" target="xn0J_1aLD7OM7Lsq-6MU-458" edge="1">
                    <mxGeometry relative="1" as="geometry">
                        <mxPoint x="820" y="1525" as="sourcePoint"/>
                        <mxPoint x="950" y="1375" as="targetPoint"/>
                    </mxGeometry>
                </mxCell>
                <mxCell id="2" value="&lt;div style=&quot;text-align: left&quot;&gt;&lt;span&gt;&lt;u&gt;&lt;b&gt;Database Simulation: airbnb-like&lt;/b&gt;&lt;/u&gt;&lt;/span&gt;&lt;/div&gt;&lt;div style=&quot;text-align: left&quot;&gt;&lt;span&gt;&lt;br&gt;&lt;/span&gt;&lt;/div&gt;&lt;div style=&quot;text-align: left&quot;&gt;&lt;span&gt;One customer can book many events.&amp;nbsp;&lt;/span&gt;&lt;/div&gt;&lt;div style=&quot;text-align: left&quot;&gt;&lt;span&gt;&lt;br&gt;&lt;/span&gt;&lt;/div&gt;&lt;div style=&quot;text-align: left&quot;&gt;&lt;span&gt;Each event will have one backyard.&amp;nbsp;&lt;/span&gt;&lt;/div&gt;&lt;div style=&quot;text-align: left&quot;&gt;&lt;span&gt;&lt;br&gt;&lt;/span&gt;&lt;/div&gt;&lt;div style=&quot;text-align: left&quot;&gt;&lt;span&gt;One partner can have many backyards&lt;/span&gt;&lt;/div&gt;&lt;div style=&quot;text-align: left&quot;&gt;&lt;span&gt;&lt;br&gt;&lt;/span&gt;&lt;/div&gt;&lt;div style=&quot;text-align: left&quot;&gt;&lt;span&gt;Each backyard can have many events but all events must be different days&lt;/span&gt;&lt;/div&gt;" style="rounded=0;whiteSpace=wrap;html=1;fillColor=#CCE5FF;" parent="1" vertex="1">
                    <mxGeometry x="280" y="1240" width="250" height="160" as="geometry"/>
                </mxCell>
            </root>
        </mxGraphModel>
    </diagram>
</mxfile>